<svg width="64" height="64" viewBox="0 0 64 64" fill="none" xmlns="http://www.w3.org/2000/svg">
<g id="Icon Productive" clip-path="url(#clip0_295_5343)">
<path id="Vector 10" d="M18.7984 26.339L1.50326 53.3083C0.44056 54.9654 2.15942 56.9994 3.97057 56.2279L6.74036 55.0482C7.73361 54.6251 8.88335 55.0667 9.33806 56.0458L11.1126 59.8671C11.8462 61.4469 14.1084 61.399 14.7745 59.7896L22.9649 40.0008C23.4794 38.7579 25.0496 38.367 26.0867 39.2238L33.5455 45.3854C34.5422 46.2088 36.0465 45.8843 36.6153 44.7233L49.1041 19.2296C49.5388 18.3422 50.5563 17.9053 51.499 18.2012L53.3438 18.7802C54.8858 19.2642 56.3354 17.8139 55.8506 16.2721L52.0405 4.15462C51.6804 3.00935 50.3995 2.43718 49.3062 2.93323L37.2831 8.38841C35.8696 9.02975 35.6937 10.9668 36.9685 11.8523L39.9322 13.911C40.8096 14.5205 41.0531 15.7119 40.4852 16.6168L32.4381 29.4373C31.8793 30.3275 30.727 30.6333 29.8004 30.1374L21.4257 25.6553C20.5057 25.1629 19.3617 25.4606 18.7984 26.339Z" fill="#63D1D1"/>
</g>
<defs>
<clipPath id="clip0_295_5343">
<rect width="64" height="64" fill="white"/>
</clipPath>
</defs>
</svg>
