<svg width="64" height="64" viewBox="0 0 64 64" fill="none" xmlns="http://www.w3.org/2000/svg">
<g id="Icon Clock">
<path id="Vector" d="M32.0002 5.3335C39.0726 5.3335 45.8554 8.14301 50.8563 13.144C55.8573 18.145 58.6668 24.9277 58.6668 32.0002C58.6668 39.0726 55.8573 45.8554 50.8563 50.8563C45.8554 55.8573 39.0726 58.6668 32.0002 58.6668C24.9277 58.6668 18.145 55.8573 13.144 50.8563C8.14301 45.8554 5.3335 39.0726 5.3335 32.0002C5.3335 24.9277 8.14301 18.145 13.144 13.144C18.145 8.14301 24.9277 5.3335 32.0002 5.3335ZM29.3335 18.6668C28.6263 18.6668 27.948 18.9478 27.4479 19.4479C26.9478 19.948 26.6668 20.6263 26.6668 21.3335V34.6668C26.6668 35.3741 26.9478 36.0523 27.4479 36.5524C27.948 37.0525 28.6263 37.3335 29.3335 37.3335H40.0002C40.7074 37.3335 41.3857 37.0525 41.8858 36.5524C42.3859 36.0523 42.6668 35.3741 42.6668 34.6668C42.6668 33.9596 42.3859 33.2813 41.8858 32.7812C41.3857 32.2811 40.7074 32.0002 40.0002 32.0002H32.0002V21.3335C32.0002 20.6263 31.7192 19.948 31.2191 19.4479C30.719 18.9478 30.0407 18.6668 29.3335 18.6668Z" fill="#63D1D1"/>
</g>
</svg>
