<svg width="48" height="48" viewBox="0 0 48 48" fill="none" xmlns="http://www.w3.org/2000/svg">
<g id="Icon Menu" clip-path="url(#clip0_310_596)">
<g id="Group">
<path id="Vector" d="M34.9474 31.7647C35.4745 31.765 35.9813 31.9745 36.3628 32.3498C36.7443 32.725 36.9713 33.2374 36.9966 33.7806C37.0219 34.3238 36.8437 34.8562 36.4989 35.2676C36.1541 35.6789 35.6691 35.9376 35.1444 35.9901L34.9474 36H13.0526C12.5255 35.9997 12.0187 35.7902 11.6372 35.415C11.2557 35.0397 11.0287 34.5273 11.0034 33.9841C10.9781 33.4409 11.1563 32.9085 11.5011 32.4971C11.8459 32.0858 12.3309 31.8271 12.8556 31.7746L13.0526 31.7647H34.9474ZM34.9474 21.8824C35.4918 21.8824 36.0139 22.1055 36.3988 22.5026C36.7837 22.8997 37 23.4384 37 24C37 24.5616 36.7837 25.1003 36.3988 25.4974C36.0139 25.8945 35.4918 26.1176 34.9474 26.1176H13.0526C12.5082 26.1176 11.9861 25.8945 11.6012 25.4974C11.2163 25.1003 11 24.5616 11 24C11 23.4384 11.2163 22.8997 11.6012 22.5026C11.9861 22.1055 12.5082 21.8824 13.0526 21.8824H34.9474ZM34.9474 12C35.4918 12 36.0139 12.2231 36.3988 12.6202C36.7837 13.0174 37 13.556 37 14.1176C37 14.6793 36.7837 15.2179 36.3988 15.6151C36.0139 16.0122 35.4918 16.2353 34.9474 16.2353H13.0526C12.5082 16.2353 11.9861 16.0122 11.6012 15.6151C11.2163 15.2179 11 14.6793 11 14.1176C11 13.556 11.2163 13.0174 11.6012 12.6202C11.9861 12.2231 12.5082 12 13.0526 12H34.9474Z" fill="#232323"/>
</g>
</g>
<defs>
<clipPath id="clip0_310_596">
<rect width="48" height="48" fill="white"/>
</clipPath>
</defs>
</svg>
