<svg width="100" height="88" viewBox="0 0 100 88" fill="none" xmlns="http://www.w3.org/2000/svg">
<g id="Group 4">
<circle id="Ellipse 5" cx="50.3829" cy="43.8068" r="31.1656" stroke="#63D1D1" stroke-width="4"/>
<g id="Ellipse 7">
<mask id="path-2-inside-1_345_380" fill="white">
<path d="M55.2128 62.3999C55.8752 62.3999 56.4255 62.9654 56.1096 63.5476C56.0734 63.6144 56.034 63.6806 55.9914 63.746C55.7136 64.1728 55.3064 64.5606 54.7931 64.8872C54.2799 65.2138 53.6705 65.4729 52.9999 65.6497C52.3292 65.8265 51.6104 65.9175 50.8845 65.9175C50.1586 65.9175 49.4399 65.8265 48.7692 65.6497C48.0986 65.4729 47.4892 65.2138 46.9759 64.8872C46.4626 64.5606 46.0555 64.1728 45.7777 63.746C45.7351 63.6806 45.6957 63.6144 45.6594 63.5476C45.3436 62.9654 45.8939 62.3999 46.5563 62.3999H46.946C47.3931 62.3999 47.7499 62.7871 47.9938 63.1619C48.1511 63.4034 48.3815 63.6229 48.6721 63.8078C48.9626 63.9927 49.3075 64.1394 49.6872 64.2394C50.0668 64.3395 50.4736 64.391 50.8845 64.391C51.2954 64.391 51.7023 64.3395 52.0819 64.2394C52.4615 64.1394 52.8065 63.9927 53.097 63.8078C53.3875 63.6229 53.618 63.4034 53.7753 63.1619C54.0192 62.7871 54.3759 62.3999 54.8231 62.3999H55.2128Z"/>
</mask>
<path d="M55.2128 62.3999C55.8752 62.3999 56.4255 62.9654 56.1096 63.5476C56.0734 63.6144 56.034 63.6806 55.9914 63.746C55.7136 64.1728 55.3064 64.5606 54.7931 64.8872C54.2799 65.2138 53.6705 65.4729 52.9999 65.6497C52.3292 65.8265 51.6104 65.9175 50.8845 65.9175C50.1586 65.9175 49.4399 65.8265 48.7692 65.6497C48.0986 65.4729 47.4892 65.2138 46.9759 64.8872C46.4626 64.5606 46.0555 64.1728 45.7777 63.746C45.7351 63.6806 45.6957 63.6144 45.6594 63.5476C45.3436 62.9654 45.8939 62.3999 46.5563 62.3999H46.946C47.3931 62.3999 47.7499 62.7871 47.9938 63.1619C48.1511 63.4034 48.3815 63.6229 48.6721 63.8078C48.9626 63.9927 49.3075 64.1394 49.6872 64.2394C50.0668 64.3395 50.4736 64.391 50.8845 64.391C51.2954 64.391 51.7023 64.3395 52.0819 64.2394C52.4615 64.1394 52.8065 63.9927 53.097 63.8078C53.3875 63.6229 53.618 63.4034 53.7753 63.1619C54.0192 62.7871 54.3759 62.3999 54.8231 62.3999H55.2128Z" stroke="#63D1D1" stroke-width="6" mask="url(#path-2-inside-1_345_380)"/>
</g>
<g id="Ellipse 6">
<mask id="path-3-inside-2_345_380" fill="white">
<path d="M92.2746 43.8066C93.0064 43.8066 93.6017 43.213 93.5793 42.4816C93.2428 31.5008 88.7337 21.0401 80.942 13.2484C72.8375 5.1439 61.8453 0.590821 50.3838 0.59082C38.9223 0.590819 27.9301 5.1439 19.8256 13.2484C12.0339 21.0401 7.52478 31.5008 7.18827 42.4816C7.16585 43.213 7.76121 43.8066 8.49301 43.8066C9.22482 43.8066 9.8158 43.213 9.83968 42.4816C10.1753 32.2038 14.4048 22.417 21.6995 15.1223C29.307 7.51479 39.6251 3.24091 50.3838 3.24091C61.1425 3.24091 71.4606 7.51479 79.0681 15.1223C86.3628 22.417 90.5923 32.2038 90.9279 42.4816C90.9518 43.213 91.5428 43.8066 92.2746 43.8066Z"/>
</mask>
<path d="M92.2746 43.8066C93.0064 43.8066 93.6017 43.213 93.5793 42.4816C93.2428 31.5008 88.7337 21.0401 80.942 13.2484C72.8375 5.1439 61.8453 0.590821 50.3838 0.59082C38.9223 0.590819 27.9301 5.1439 19.8256 13.2484C12.0339 21.0401 7.52478 31.5008 7.18827 42.4816C7.16585 43.213 7.76121 43.8066 8.49301 43.8066C9.22482 43.8066 9.8158 43.213 9.83968 42.4816C10.1753 32.2038 14.4048 22.417 21.6995 15.1223C29.307 7.51479 39.6251 3.24091 50.3838 3.24091C61.1425 3.24091 71.4606 7.51479 79.0681 15.1223C86.3628 22.417 90.5923 32.2038 90.9279 42.4816C90.9518 43.213 91.5428 43.8066 92.2746 43.8066Z" fill="#232323" stroke="#232323" stroke-width="8" mask="url(#path-3-inside-2_345_380)"/>
</g>
<path id="Rectangle 62" d="M16.2085 33.1265C16.2085 31.4696 17.5516 30.1265 19.2085 30.1265H44.3741C46.031 30.1265 47.3741 31.4696 47.3741 33.1265V40.2469C47.3741 46.8744 42.0016 52.2469 35.3741 52.2469H28.2085C21.5811 52.2469 16.2085 46.8744 16.2085 40.2469V33.1265Z" fill="#CDFFFF" stroke="#63D1D1" stroke-width="2"/>
<path id="Rectangle 63" d="M53.3926 33.1265C53.3926 31.4696 54.7357 30.1265 56.3926 30.1265H81.5582C83.2151 30.1265 84.5582 31.4696 84.5582 33.1265V40.2469C84.5582 46.8744 79.1856 52.2469 72.5582 52.2469H65.3926C58.7652 52.2469 53.3926 46.8744 53.3926 40.2469V33.1265Z" fill="#CDFFFF" stroke="#63D1D1" stroke-width="2"/>
<line id="Line 4" x1="47.3691" y1="35.6665" x2="53.3993" y2="35.6665" stroke="#63D1D1" stroke-width="3"/>
<rect id="Rectangle 64" x="4.65186" y="27.2212" width="9.05019" height="30.1556" rx="4.5" fill="#232323" stroke="#232323"/>
<rect id="Rectangle 65" x="87.0635" y="27.2212" width="9.05019" height="30.1556" rx="4.5" fill="#232323" stroke="#232323"/>
<rect id="Rectangle 67" x="0.5" y="34.5181" width="9.05019" height="15.0803" rx="4.5" fill="#232323" stroke="#232323"/>
<rect id="Rectangle 68" x="24.1206" y="65.0918" width="20.1004" height="10.0502" rx="5" fill="#232323"/>
<path id="Line 5" d="M13.4956 48.4268L13.5846 50.2461C13.9755 58.2423 18.2373 65.5468 25.0061 69.8218V69.8218" stroke="#232323"/>
<rect id="Rectangle 66" x="90.2939" y="34.5181" width="9.20642" height="15.3303" rx="4.5" fill="#232323" stroke="#232323"/>
</g>
</svg>
