<svg width="64" height="64" viewBox="0 0 64 64" fill="none" xmlns="http://www.w3.org/2000/svg">
<g id="Icon Heir">
<path id="Subtract" fill-rule="evenodd" clip-rule="evenodd" d="M37.471 61.5C36.6916 60.9681 36 60.0436 36 58.2317C35.9999 54.3755 37.4827 53.0168 39.0957 51.5388C39.7518 50.9377 40.4294 50.3167 41.0375 49.5H35.0632C34.5163 52.6439 34.1766 54.9804 34.1766 56.0018C34.1766 57.436 34.1766 60.0647 31.914 61.5H37.471ZM44.9424 61.5H58C61.3137 61.5 64 58.8137 64 55.5C64 52.1863 61.3137 49.5 58 49.5H48.1044C47.5335 52.7048 47.1766 55.0897 47.1766 56.1179C47.1766 57.5205 47.1766 60.0865 44.9424 61.5ZM23 58.1541C23 60.0197 23.7073 60.9614 24.4974 61.5H17.9424C20.1766 60.0865 20.1766 57.5205 20.1766 56.1179C20.1766 55.0897 20.5335 52.7048 21.1044 49.5H27.8588C27.2982 50.2176 26.6882 50.7868 26.0957 51.3395L26.0957 51.3395C24.4827 52.8444 22.9999 54.2277 23 58.1541ZM10.471 61.5C9.69156 60.9681 9.00004 60.0436 9 58.2317C8.99992 54.3755 10.4827 53.0168 12.0957 51.5388C12.7517 50.9377 13.4294 50.3167 14.0375 49.5H6C2.68629 49.5 0 52.1863 0 55.5C0 58.8137 2.68629 61.5 6 61.5H10.471Z" fill="#63D1D1"/>
<path id="Vector 16" d="M38 57.2406C38.0001 60.0941 40.0588 60.0654 40.4706 60.4689C45.8236 60.8725 45.8236 57.2406 45.8236 55.6264C45.8236 52.205 49.4317 35.5962 60.7811 6.77161C61.2072 5.68958 60.5622 5.34923 60.0616 6.3988C54.0681 18.9625 43.5159 44.8176 42.5294 48.3625C41.2941 52.8015 37.9999 51.9944 38 57.2406Z" fill="#63D1D1"/>
<path id="Vector 17" d="M11 57.7406C11.0001 60.5941 13.0588 60.5654 13.4706 60.9689C18.8236 61.3725 18.8236 57.7406 18.8236 56.1264C18.8236 52.705 22.4317 36.0962 33.7811 7.27161C34.2072 6.18958 33.5622 5.84923 33.0616 6.8988C27.0681 19.4625 16.5159 45.3176 15.5294 48.8625C14.2941 53.3015 10.9999 52.4944 11 57.7406Z" fill="#63D1D1"/>
<path id="Vector 18" d="M25 57.7406C25.0001 60.5941 27.0588 60.5654 27.4706 60.9689C32.8236 61.3725 32.8236 57.7406 32.8236 56.1264C32.8236 52.705 36.4317 36.0962 47.7811 7.27161C48.2072 6.18958 47.5622 5.84923 47.0616 6.8988C41.0681 19.4625 30.5159 45.3176 29.5294 48.8625C28.2941 53.3015 24.9999 52.4944 25 57.7406Z" fill="#63D1D1"/>
</g>
</svg>
