<svg width="48" height="48" viewBox="0 0 48 48" fill="none" xmlns="http://www.w3.org/2000/svg">
<circle cx="24" cy="24" r="24" fill="white"/>
<path d="M31.1198 15.2803C30.8034 15.2803 30.494 15.3742 30.2309 15.55C29.9678 15.7258 29.7627 15.9757 29.6416 16.268C29.5205 16.5604 29.4888 16.8821 29.5506 17.1925C29.6123 17.5028 29.7647 17.7879 29.9885 18.0117C30.2122 18.2355 30.4973 18.3878 30.8077 18.4496C31.1181 18.5113 31.4398 18.4796 31.7321 18.3585C32.0245 18.2374 32.2744 18.0324 32.4502 17.7692C32.626 17.5061 32.7198 17.1968 32.7198 16.8803C32.7198 16.456 32.5513 16.049 32.2512 15.749C31.9511 15.4489 31.5442 15.2803 31.1198 15.2803ZM37.2532 18.507C37.2272 17.4007 37.02 16.3062 36.6398 15.267C36.3008 14.3778 35.7731 13.5727 35.0932 12.907C34.4329 12.2236 33.6259 11.6992 32.7332 11.3737C31.6967 10.9819 30.601 10.7699 29.4932 10.747C28.0798 10.667 27.6265 10.667 23.9998 10.667C20.3732 10.667 19.9198 10.667 18.5065 10.747C17.3987 10.7699 16.303 10.9819 15.2665 11.3737C14.3754 11.7025 13.5691 12.2264 12.9065 12.907C12.2231 13.5672 11.6987 14.3742 11.3732 15.267C10.9814 16.3034 10.7695 17.3992 10.7465 18.507C10.6665 19.9203 10.6665 20.3737 10.6665 24.0003C10.6665 27.627 10.6665 28.0803 10.7465 29.4937C10.7695 30.6015 10.9814 31.6972 11.3732 32.7337C11.6987 33.6264 12.2231 34.4334 12.9065 35.0937C13.5691 35.7742 14.3754 36.2981 15.2665 36.627C16.303 37.0188 17.3987 37.2307 18.5065 37.2537C19.9198 37.3337 20.3732 37.3337 23.9998 37.3337C27.6265 37.3337 28.0798 37.3337 29.4932 37.2537C30.601 37.2307 31.6967 37.0188 32.7332 36.627C33.6259 36.3014 34.4329 35.7771 35.0932 35.0937C35.7762 34.4304 36.3043 33.6246 36.6398 32.7337C37.02 31.6945 37.2272 30.5999 37.2532 29.4937C37.2532 28.0803 37.3332 27.627 37.3332 24.0003C37.3332 20.3737 37.3332 19.9203 37.2532 18.507ZM34.8532 29.3337C34.8435 30.18 34.6902 31.0186 34.3998 31.8137C34.1869 32.3939 33.845 32.9182 33.3998 33.347C32.9674 33.7877 32.4441 34.1289 31.8665 34.347C31.0714 34.6373 30.2329 34.7906 29.3865 34.8003C28.0532 34.867 27.5598 34.8803 24.0532 34.8803C20.5465 34.8803 20.0532 34.8803 18.7198 34.8003C17.841 34.8168 16.966 34.6815 16.1332 34.4003C15.5809 34.1711 15.0816 33.8307 14.6665 33.4003C14.224 32.972 13.8863 32.4472 13.6798 31.867C13.3543 31.0605 13.1738 30.2029 13.1465 29.3337C13.1465 28.0003 13.0665 27.507 13.0665 24.0003C13.0665 20.4937 13.0665 20.0003 13.1465 18.667C13.1525 17.8017 13.3104 16.9443 13.6132 16.1337C13.8479 15.5709 14.2082 15.0692 14.6665 14.667C15.0716 14.2085 15.5722 13.8445 16.1332 13.6003C16.9459 13.307 17.8025 13.1538 18.6665 13.147C19.9998 13.147 20.4932 13.067 23.9998 13.067C27.5065 13.067 27.9998 13.067 29.3332 13.147C30.1795 13.1567 31.0181 13.31 31.8132 13.6003C32.4191 13.8252 32.9629 14.1908 33.3998 14.667C33.8368 15.0766 34.1782 15.5773 34.3998 16.1337C34.6962 16.9456 34.8496 17.8027 34.8532 18.667C34.9198 20.0003 34.9332 20.4937 34.9332 24.0003C34.9332 27.507 34.9198 28.0003 34.8532 29.3337ZM23.9998 17.1603C22.6476 17.163 21.3265 17.5664 20.2034 18.3195C19.0803 19.0727 18.2057 20.1419 17.69 21.392C17.1744 22.6421 17.0408 24.0169 17.3062 25.3429C17.5717 26.6688 18.2242 27.8864 19.1813 28.8416C20.1384 29.7969 21.3572 30.447 22.6836 30.7099C24.0101 30.9727 25.3847 30.8365 26.6338 30.3184C27.8829 29.8003 28.9503 28.9236 29.7013 27.799C30.4523 26.6745 30.8532 25.3526 30.8532 24.0003C30.8549 23.1005 30.6788 22.2091 30.3348 21.3776C29.9909 20.5461 29.4859 19.7907 28.849 19.1551C28.2121 18.5194 27.4558 18.0159 26.6236 17.6736C25.7914 17.3312 24.8997 17.1568 23.9998 17.1603ZM23.9998 28.4403C23.1217 28.4403 22.2633 28.1799 21.5331 27.692C20.8029 27.2042 20.2339 26.5107 19.8978 25.6994C19.5618 24.8881 19.4738 23.9954 19.6452 23.1341C19.8165 22.2728 20.2393 21.4817 20.8603 20.8608C21.4812 20.2398 22.2724 19.817 23.1336 19.6456C23.9949 19.4743 24.8876 19.5622 25.699 19.8983C26.5103 20.2344 27.2037 20.8034 27.6916 21.5336C28.1794 22.2637 28.4398 23.1222 28.4398 24.0003C28.4398 24.5834 28.325 25.1608 28.1019 25.6994C27.8787 26.2381 27.5517 26.7276 27.1394 27.1399C26.7271 27.5522 26.2376 27.8792 25.699 28.1024C25.1603 28.3255 24.5829 28.4403 23.9998 28.4403Z" fill="#232323"/>
</svg>
