<svg width="104" height="66" viewBox="0 0 104 66" fill="none" xmlns="http://www.w3.org/2000/svg">
<g id="Logo">
<g id="Natali">
<path d="M24.7571 35.7684C24.1242 35.7684 23.5456 35.5876 23.0212 35.2259C22.4968 34.8643 22.081 34.3942 21.7736 33.8156C21.4662 33.237 21.3125 32.6131 21.3125 31.9441C21.3125 31.6367 21.3396 31.4198 21.3939 31.2932C21.4662 31.1485 21.5747 31.0491 21.7193 30.9948L27.1438 28.9878C27.5055 28.8612 27.7496 28.7165 27.8761 28.5538C28.0027 28.373 28.066 28.1289 28.066 27.8215V27.0078C28.066 26.2122 27.8761 25.5613 27.4964 25.055C27.1167 24.5487 26.5291 24.2956 25.7335 24.2956C25.2091 24.2956 24.7842 24.4131 24.4587 24.6482C24.1332 24.8651 23.9705 25.1364 23.9705 25.4618C23.9705 25.5884 23.9976 25.7059 24.0519 25.8144C24.1242 25.9229 24.2056 26.0314 24.296 26.1399C24.4225 26.3026 24.522 26.4744 24.5943 26.6552C24.6847 26.836 24.7299 27.0259 24.7299 27.2248C24.7299 27.6226 24.5853 27.939 24.296 28.1741C24.0248 28.4092 23.6722 28.5267 23.2382 28.5267C22.7862 28.5267 22.4336 28.4001 22.1804 28.147C21.9273 27.8757 21.8007 27.5051 21.8007 27.0349C21.8007 26.384 22.0267 25.7964 22.4788 25.272C22.9308 24.7295 23.5094 24.3046 24.2146 23.9972C24.9198 23.6718 25.6431 23.509 26.3844 23.509C27.2342 23.509 27.9756 23.6627 28.6085 23.9701C29.2594 24.2594 29.7657 24.6843 30.1273 25.2449C30.507 25.7873 30.6969 26.4563 30.6969 27.2519V33.0561C30.6969 33.4178 30.7331 33.7252 30.8054 33.9783C30.8958 34.2315 31.1037 34.358 31.4292 34.358C31.7547 34.358 32.1525 34.2767 32.6226 34.1139V34.6835C32.279 34.9005 31.827 35.1355 31.2665 35.3887C30.724 35.6237 30.2448 35.7413 29.829 35.7413C29.4493 35.7413 29.1419 35.6599 28.9068 35.4972C28.6717 35.3344 28.5 35.0813 28.3915 34.7377C28.283 34.3942 28.2287 33.9873 28.2287 33.5172V33.1375L28.7712 33.6528C28.3915 33.9783 27.9756 34.3038 27.5236 34.6292C27.0715 34.9547 26.6104 35.2259 26.1403 35.4429C25.6702 35.6599 25.2091 35.7684 24.7571 35.7684ZM25.9776 34.2767C26.2669 34.2767 26.5471 34.2134 26.8184 34.0868C27.1077 33.9602 27.406 33.7885 27.7134 33.5715C27.9485 33.3907 28.066 33.1013 28.066 32.7036V29.7472C28.066 29.693 28.0479 29.6568 28.0118 29.6387C27.9756 29.6025 27.9304 29.6025 27.8761 29.6387L24.2417 30.9677C24.1332 31.0039 24.0519 31.0852 23.9976 31.2118C23.9615 31.3384 23.9434 31.5463 23.9434 31.8356C23.9434 32.2334 24.0428 32.6222 24.2417 33.0019C24.4406 33.3635 24.6938 33.6709 25.0012 33.9241C25.3266 34.1591 25.6521 34.2767 25.9776 34.2767Z" fill="#232323"/>
<path d="M37.5805 35.7955C35.8989 35.7955 35.0581 34.7377 35.0581 32.6222V24.5939H33.268V23.943C34.4433 23.7441 35.3203 23.3282 35.8989 22.6953C36.4775 22.0625 36.8482 21.1584 37.0109 19.9831H37.689V23.7531H41.0251L40.7538 24.5939H37.689V32.4052C37.689 33.0923 37.7975 33.5624 38.0145 33.8156C38.2314 34.0687 38.5298 34.1953 38.9095 34.1953C39.1807 34.1953 39.4881 34.132 39.8317 34.0054C40.1752 33.8789 40.5278 33.7161 40.8894 33.5172L41.242 34.1139C40.5549 34.6564 39.8859 35.0722 39.235 35.3616C38.6021 35.6509 38.0506 35.7955 37.5805 35.7955Z" fill="#232323"/>
<path d="M46.2644 35.7684C45.6315 35.7684 45.0529 35.5876 44.5285 35.2259C44.0041 34.8643 43.5883 34.3942 43.2809 33.8156C42.9735 33.237 42.8198 32.6131 42.8198 31.9441C42.8198 31.6367 42.8469 31.4198 42.9012 31.2932C42.9735 31.1485 43.082 31.0491 43.2266 30.9948L48.6511 28.9878C49.0128 28.8612 49.2569 28.7165 49.3834 28.5538C49.51 28.373 49.5733 28.1289 49.5733 27.8215V27.0078C49.5733 26.2122 49.3834 25.5613 49.0037 25.055C48.624 24.5487 48.0364 24.2956 47.2408 24.2956C46.7164 24.2956 46.2915 24.4131 45.966 24.6482C45.6405 24.8651 45.4778 25.1364 45.4778 25.4618C45.4778 25.5884 45.5049 25.7059 45.5592 25.8144C45.6315 25.9229 45.7129 26.0314 45.8033 26.1399C45.9298 26.3026 46.0293 26.4744 46.1016 26.6552C46.192 26.836 46.2372 27.0259 46.2372 27.2248C46.2372 27.6226 46.0926 27.939 45.8033 28.1741C45.532 28.4092 45.1795 28.5267 44.7455 28.5267C44.2935 28.5267 43.9409 28.4001 43.6877 28.147C43.4346 27.8757 43.308 27.5051 43.308 27.0349C43.308 26.384 43.534 25.7964 43.9861 25.272C44.4381 24.7295 45.0167 24.3046 45.7219 23.9972C46.4271 23.6718 47.1504 23.509 47.8917 23.509C48.7415 23.509 49.4829 23.6627 50.1158 23.9701C50.7667 24.2594 51.273 24.6843 51.6346 25.2449C52.0143 25.7873 52.2042 26.4563 52.2042 27.2519V33.0561C52.2042 33.4178 52.2404 33.7252 52.3127 33.9783C52.4031 34.2315 52.611 34.358 52.9365 34.358C53.262 34.358 53.6598 34.2767 54.1299 34.1139V34.6835C53.7863 34.9005 53.3343 35.1355 52.7738 35.3887C52.2313 35.6237 51.7521 35.7413 51.3363 35.7413C50.9566 35.7413 50.6492 35.6599 50.4141 35.4972C50.179 35.3344 50.0073 35.0813 49.8988 34.7377C49.7903 34.3942 49.736 33.9873 49.736 33.5172V33.1375L50.2785 33.6528C49.8988 33.9783 49.4829 34.3038 49.0309 34.6292C48.5788 34.9547 48.1177 35.2259 47.6476 35.4429C47.1775 35.6599 46.7164 35.7684 46.2644 35.7684ZM47.4849 34.2767C47.7742 34.2767 48.0544 34.2134 48.3257 34.0868C48.615 33.9602 48.9133 33.7885 49.2207 33.5715C49.4558 33.3907 49.5733 33.1013 49.5733 32.7036V29.7472C49.5733 29.693 49.5552 29.6568 49.5191 29.6387C49.4829 29.6025 49.4377 29.6025 49.3834 29.6387L45.749 30.9677C45.6405 31.0039 45.5592 31.0852 45.5049 31.2118C45.4688 31.3384 45.4507 31.5463 45.4507 31.8356C45.4507 32.2334 45.5501 32.6222 45.749 33.0019C45.9479 33.3635 46.2011 33.6709 46.5085 33.9241C46.8339 34.1591 47.1594 34.2767 47.4849 34.2767Z" fill="#232323"/>
<path d="M55.3114 35.5785V35.1446L56.2878 34.8191C56.541 34.7468 56.7218 34.6292 56.8303 34.4665C56.9568 34.2857 57.0201 34.0687 57.0201 33.8156V19.1152C57.0201 18.7355 56.9659 18.4823 56.8574 18.3557C56.7489 18.2111 56.5771 18.1116 56.3421 18.0574L55.3114 17.7862V17.4065C56.1974 17.2618 56.984 17.1171 57.6711 16.9725C58.3582 16.8278 59.0543 16.6018 59.7595 16.2944L60.0307 16.4843C59.8861 16.7736 59.7866 17.1262 59.7324 17.5421C59.6781 17.9579 59.651 18.4371 59.651 18.9796V33.9512C59.651 34.2043 59.7143 34.4032 59.8409 34.5479C59.9855 34.6745 60.1573 34.7649 60.3562 34.8191L61.3326 35.1446V35.5785H55.3114Z" fill="#232323"/>
<path d="M65.7907 20.6069C65.2844 20.6069 64.8504 20.4351 64.4888 20.0916C64.1452 19.73 63.9734 19.296 63.9734 18.7897C63.9734 18.2834 65.0701 18.6993 65.4137 18.3557C65.7753 17.9941 65.2844 16.9725 65.7907 16.9725C66.2969 16.9725 66.7219 17.1533 67.0654 17.5149C67.427 17.8585 67.6079 18.2834 67.6079 18.7897C67.6079 19.296 67.427 19.73 67.0654 20.0916C66.7219 20.4351 66.2969 20.6069 65.7907 20.6069Z" fill="#232323"/>
</g>
<g id="Glishko">
<path d="M17.9848 55.9587C16.6467 55.9587 15.372 55.7417 14.1605 55.3077C12.9671 54.8738 11.9003 54.2499 10.96 53.4363C10.0379 52.6045 9.30557 51.61 8.76312 50.4528C8.23875 49.2956 7.97656 47.9937 7.97656 46.5471C7.97656 45.1729 8.23875 43.9163 8.76312 42.7771C9.30557 41.638 10.0288 40.6435 10.9329 39.7936C11.8551 38.9438 12.9219 38.2929 14.1334 37.8408C15.3448 37.3888 16.6196 37.1628 17.9576 37.1628C18.8798 37.1628 19.6483 37.226 20.2631 37.3526C20.8959 37.4611 21.4293 37.6058 21.8633 37.7866C22.3153 37.9493 22.7222 38.094 23.0838 38.2205C23.4454 38.3471 23.8342 38.4104 24.2501 38.4104C24.449 38.4104 24.6298 38.3923 24.7925 38.3561C24.9553 38.32 25.0999 38.2929 25.2265 38.2748L25.3078 38.329C25.2717 38.4918 25.2355 38.6907 25.1994 38.9257C25.1632 39.1427 25.1451 39.3506 25.1451 39.5495C25.1451 40.0558 25.1813 40.5621 25.2536 41.0684C25.3259 41.5747 25.3983 42.0086 25.4706 42.3703C25.5429 42.7138 25.5972 42.9127 25.6333 42.967H24.8468C24.5032 42.0267 24.006 41.1859 23.355 40.4446C22.7041 39.6851 21.9356 39.0885 21.0496 38.6545C20.1636 38.2025 19.1691 37.9764 18.0661 37.9764C17.0716 37.9764 16.1766 38.2025 15.381 38.6545C14.5854 39.1065 13.8983 39.7304 13.3197 40.5259C12.7592 41.3215 12.3162 42.2347 11.9907 43.2653C11.6833 44.296 11.5296 45.3809 11.5296 46.52C11.5296 47.6049 11.6562 48.6627 11.9093 49.6934C12.1625 50.724 12.5512 51.6552 13.0756 52.487C13.6 53.3006 14.2871 53.9516 15.1369 54.4398C16.0048 54.9099 17.0355 55.145 18.2289 55.145C18.8256 55.145 19.4946 55.0455 20.2359 54.8466C20.9773 54.6477 21.6463 54.2771 22.243 53.7346V49.8018C22.243 49.2232 22.1526 48.8435 21.9718 48.6627C21.791 48.4819 21.357 48.3282 20.6699 48.2016L19.1782 47.9033V47.3608H28.2371V47.9033L27.1251 48.1202C26.456 48.2468 26.0221 48.4096 25.8232 48.6085C25.6424 48.7893 25.552 49.169 25.552 49.7476V54.9009L25.4435 54.9551C25.2626 54.919 25.0909 54.8918 24.9281 54.8738C24.7654 54.8376 24.5484 54.8195 24.2772 54.8195C23.9698 54.8195 23.6172 54.8738 23.2194 54.9822C22.8216 55.0726 22.3967 55.1902 21.9447 55.3348C21.4022 55.4795 20.8055 55.6151 20.1546 55.7417C19.5036 55.8863 18.7804 55.9587 17.9848 55.9587Z" fill="#232323"/>
<path d="M29.398 55.6603V55.2263L30.3745 54.9009C30.6276 54.8285 30.8084 54.711 30.9169 54.5483C31.0435 54.3675 31.1068 54.1505 31.1068 53.8973V39.0374C31.1068 38.6577 31.0525 38.4045 30.944 38.278C30.8355 38.1333 30.6638 38.0339 30.4287 37.9796L29.398 37.7084V37.3287C30.284 37.184 31.0867 37.0094 31.7486 36.7751C32.5373 36.4959 33.3441 35.8178 33.819 35.3392L34.1174 35.6088C33.9727 35.8981 33.8733 36.7293 33.819 37.1452C33.7648 37.5611 33.7376 38.0402 33.7376 38.5827V54.033C33.7376 54.2861 33.8009 54.485 33.9275 54.6296C34.0722 54.7562 34.2439 54.8466 34.4428 54.9009L35.4192 55.2263V55.6603H29.398Z" fill="#232323"/>
<path d="M70.6151 55.6603V55.2263L71.5916 54.9009C71.8628 54.8285 72.0526 54.711 72.1611 54.5483C72.2696 54.3675 72.3239 54.1505 72.3239 53.8973V48.066C72.3239 47.2523 72.1069 46.6285 71.6729 46.1945C71.239 45.7425 70.6061 45.5165 69.7744 45.5165C68.9607 45.5165 68.3097 45.7787 67.8215 46.303C67.3514 46.8274 67.1163 47.4693 67.1163 48.2287L66.5739 45.4622H67.0892C67.5774 45.2272 68.1108 44.956 68.6894 44.6486C69.2681 44.3412 69.8196 44.0428 70.3439 43.7535C70.4343 43.7174 70.5247 43.6902 70.6151 43.6722C70.7236 43.636 70.8231 43.6179 70.9135 43.6179C72.1973 43.6179 73.1918 43.9434 73.897 44.5943C74.6022 45.2272 74.9548 46.1584 74.9548 47.3879V54.033C74.9548 54.2861 75.0271 54.485 75.1717 54.6296C75.3164 54.7562 75.4882 54.8466 75.6871 54.9009L76.6635 55.2263V55.6603H70.6151ZM62.7767 55.6603V55.2263L63.7532 54.9009C64.0063 54.8285 64.1871 54.711 64.2956 54.5483C64.4222 54.3675 64.4855 54.1505 64.4855 53.8973V26.2739C64.4855 25.8942 64.4312 25.641 64.3227 25.5144C64.2142 25.3698 64.0425 25.2703 63.8074 25.2161L62.7767 24.9449V24.5651C63.6627 24.4205 64.4493 24.2758 65.1364 24.1312C65.8235 23.9865 66.5196 23.7605 67.2248 23.4531L67.4961 23.643C67.3514 23.9323 67.252 24.2849 67.1977 24.7008C67.1435 25.1166 67.1163 25.5958 67.1163 26.1383V54.033C67.1163 54.2861 67.1796 54.485 67.3062 54.6296C67.4509 54.7562 67.6226 54.8466 67.8215 54.9009L68.7979 55.2263V55.6603H62.7767Z" fill="#232323"/>
<path d="M77.8749 55.6603V55.2263L78.8513 54.9009C79.1044 54.8285 79.2852 54.711 79.3937 54.5483C79.5022 54.3675 79.5565 54.1505 79.5565 53.8973V39.1969C79.5565 38.8172 79.5022 38.5641 79.3937 38.4375C79.2852 38.2929 79.1135 38.1934 78.8784 38.1392L77.8477 37.8679V37.4882C78.7337 37.3436 79.5203 37.1989 80.2074 37.0543C80.8085 36.9277 81.6062 36.3762 82.2958 35.8976L82.5671 36.0874C82.4224 36.3767 82.323 37.208 82.2687 37.6238C82.2145 38.0397 82.1873 38.5189 82.1873 39.0613V54.033C82.1873 54.2861 82.2597 54.485 82.4043 54.6296C82.549 54.7562 82.7208 54.8466 82.9197 54.9009L83.8961 55.2263V55.6603H77.8749ZM85.3064 55.6603V55.2263L86.0659 55.0636C86.3371 54.9732 86.5089 54.8466 86.5812 54.6839C86.6716 54.5031 86.6354 54.2861 86.4727 54.033L83.4079 49.395L85.3878 47.7405L89.6189 54.0601C89.7997 54.3313 89.9896 54.5483 90.1885 54.711C90.4055 54.8557 90.6677 54.9642 90.975 55.0365L91.6802 55.1992V55.6603H85.3064ZM81.9432 51.7818L81.7534 50.6969L87.1779 45.2181C87.3225 45.0916 87.3678 44.956 87.3135 44.8113C87.2773 44.6666 87.1598 44.5762 86.9609 44.5401L85.7133 44.296V43.8349H90.8937V44.296L89.646 44.5672C89.411 44.6395 89.2302 44.7119 89.1036 44.7842C88.977 44.8384 88.8414 44.9379 88.6967 45.0825L81.9432 51.7818Z" fill="#232323"/>
<path d="M97.9322 55.8773C96.7569 55.8773 95.7172 55.6151 94.8131 55.0907C93.909 54.5483 93.2129 53.825 92.7247 52.9209C92.2365 51.9988 91.9923 50.9771 91.9923 49.8561C91.9923 48.6265 92.2365 47.5416 92.7247 46.6014C93.2129 45.6611 93.909 44.9288 94.8131 44.4045C95.7172 43.8801 96.7569 43.6179 97.9322 43.6179C99.1256 43.6179 100.165 43.8801 101.051 44.4045C101.937 44.9288 102.624 45.6431 103.113 46.5471C103.619 47.4512 103.872 48.4819 103.872 49.6391C103.872 50.8506 103.619 51.9264 103.113 52.8667C102.624 53.8069 101.937 54.5483 101.051 55.0907C100.165 55.6151 99.1256 55.8773 97.9322 55.8773ZM97.9593 55.0907C98.9176 55.0907 99.659 54.6658 100.183 53.816C100.708 52.9481 100.97 51.6552 100.97 49.9375C100.97 48.1474 100.708 46.7822 100.183 45.842C99.659 44.8836 98.8996 44.4045 97.9051 44.4045C96.9467 44.4045 96.2054 44.8294 95.681 45.6792C95.1566 46.5291 94.8945 47.8219 94.8945 49.5577C94.8945 51.3297 95.1566 52.6949 95.681 53.6532C96.2054 54.6116 96.9648 55.0907 97.9593 55.0907Z" fill="#232323"/>
</g>
<path id="Natali_2" d="M17.8195 35.7858L4.0955 20.4074V53.0645C4.0955 53.5527 4.20399 53.9143 4.42097 54.1493C4.65603 54.3844 5.07191 54.5562 5.6686 54.6647L7.51294 55.0444V55.5868H0V55.0444L1.62735 54.6918C2.20596 54.5833 2.6128 54.4206 2.84786 54.2036C3.08293 53.9866 3.20046 53.6159 3.20046 53.0916V19.5937C3.20046 19.1959 3.16429 18.8975 3.09197 18.6986C3.01964 18.4817 2.8569 18.3189 2.60376 18.2104C2.3687 18.1019 1.98898 17.9935 1.46462 17.885L0.10849 17.6137V17.0713H5.4245L17.3042 29.9146V19.5937C17.3042 19.0874 17.1866 18.7258 16.9516 18.5088C16.7165 18.2737 16.3097 18.1019 15.7311 17.9935L13.8596 17.6137V17.0713H21.3725V17.6137L19.7723 17.9663C19.1756 18.0748 18.7597 18.2376 18.5247 18.4545C18.3077 18.6715 18.1992 19.0422 18.1992 19.5666V35.7858H17.8195Z" fill="#232323"/>
<path id="Rectangle 13" d="M89.8551 17.9131L84.64 10.8808C81.461 6.59416 75.5198 5.56537 71.1037 8.43054L76.3189 15.4628C79.4979 19.7494 85.4391 20.7782 89.8551 17.9131Z" fill="white" stroke="#232323" stroke-width="1.27635"/>
<path id="Rectangle 11" d="M83.4419 27.7406V18.9856C83.4419 13.6488 87.6012 9.28341 92.855 8.95423V17.7092C92.855 23.046 88.6957 27.4114 83.4419 27.7406Z" fill="white" stroke="#232323" stroke-width="1.27635"/>
<path id="Rectangle 16" d="M78.4956 36.0208V31.111C78.4956 28.2428 80.658 25.8797 83.4415 25.563V30.4728C83.4415 33.341 81.2791 35.7041 78.4956 36.0208Z" fill="white" stroke="#232323" stroke-width="1.27635"/>
<path id="Rectangle 12" d="M87.5894 19.4444V10.6894C87.5894 5.35262 83.4301 0.987263 78.1763 0.658083V9.41308C78.1763 14.7499 82.3355 19.1153 87.5894 19.4444Z" fill="white" stroke="#232323" stroke-width="1.27635"/>
<path id="Rectangle 14" d="M85.6753 19.1206V12.4444C85.6753 8.16539 82.3722 4.65782 78.1767 4.33232V11.0085C78.1767 15.2875 81.4798 18.7951 85.6753 19.1206Z" fill="white" stroke="#232323" stroke-width="1.27635"/>
<path id="Rectangle 15" d="M83.6011 18.4739V14.8376C83.6011 11.7048 81.2249 9.12698 78.1766 8.80808V12.4444C78.1766 15.5772 80.5527 18.155 83.6011 18.4739Z" fill="white" stroke="#232323" stroke-width="1.27635"/>
<path id="y" d="M39.0566 65.9236C38.4397 65.9236 37.9398 65.7322 37.5569 65.3493C37.1952 64.9664 37.0144 64.5303 37.0144 64.041C37.0144 63.4879 37.1846 63.0199 37.5249 62.637C37.8653 62.2754 38.2908 62.0946 38.8013 62.0946C39.0991 62.0946 39.3437 62.1478 39.5352 62.2541C39.7479 62.3605 39.9287 62.4775 40.0776 62.6051C40.2053 62.7328 40.3223 62.8178 40.4286 62.8604C40.535 62.9242 40.6414 62.9561 40.7477 62.9561C41.0881 62.9561 41.3753 62.6796 41.6093 62.1265L43.7472 57.0849L38.6737 45.1829C38.5673 44.9702 38.4397 44.8213 38.2908 44.7362C38.1631 44.6298 37.961 44.5447 37.6845 44.4809L36.6953 44.2575V43.7151H44.1301V44.2575L43.0133 44.5128C42.6942 44.5766 42.4495 44.7043 42.2794 44.8957C42.1305 45.0659 42.1092 45.3105 42.2155 45.6296L45.8212 54.4045H44.9916L48.7569 45.3743C48.8632 45.1616 48.8845 44.9914 48.8207 44.8638C48.7569 44.7362 48.5441 44.6298 48.1825 44.5447L46.7466 44.2575V43.7151H52.2349V44.2575L51.0543 44.5766C50.7777 44.6617 50.5757 44.7574 50.448 44.8638C50.3204 44.9489 50.2034 45.0978 50.097 45.3105L42.7261 62.637C42.407 63.3816 42.056 63.9878 41.6731 64.4558C41.3115 64.9451 40.9073 65.3067 40.4606 65.5407C40.0351 65.796 39.5671 65.9236 39.0566 65.9236Z" fill="#232323"/>
<path id="Glishko_2" d="M57.3329 56.0016C56.4831 56.0016 55.6875 55.875 54.9461 55.6219C54.2048 55.3506 53.6442 55.1065 53.2645 54.8896C53.3007 54.3652 53.3188 53.7956 53.3188 53.1808C53.3188 52.5661 53.2555 51.9784 53.1289 51.4179H54.0511C54.1596 52.1411 54.3585 52.7921 54.6478 53.3707C54.9552 53.9493 55.353 54.4104 55.8412 54.7539C56.3294 55.0794 56.908 55.2422 57.577 55.2422C58.1014 55.2422 58.5444 55.0794 58.906 54.7539C59.2857 54.4104 59.4756 53.9674 59.4756 53.4249C59.4756 52.9729 59.3942 52.6022 59.2315 52.3129C59.0687 52.0236 58.7704 51.7524 58.3364 51.4992C57.9205 51.2461 57.3148 50.9749 56.5192 50.6856C55.4886 50.2697 54.7201 49.7905 54.2138 49.2481C53.7256 48.7056 53.4815 47.9643 53.4815 47.024C53.4815 46.4454 53.6533 45.912 53.9968 45.4238C54.3404 44.9175 54.8286 44.5107 55.4614 44.2033C56.0943 43.8778 56.8266 43.7151 57.6584 43.7151C58.2189 43.7151 58.68 43.7693 59.0416 43.8778C59.4032 43.9863 59.783 44.131 60.1808 44.3118H60.8317C60.7955 44.9627 60.7865 45.5233 60.8046 45.9934C60.8407 46.4635 60.9131 46.9969 61.0216 47.5936H60.2892C60.0542 46.581 59.6926 45.8126 59.2043 45.2882C58.7342 44.7457 58.1375 44.4745 57.4143 44.4745C56.8718 44.4745 56.4378 44.6282 56.1124 44.9356C55.7869 45.243 55.6242 45.6317 55.6242 46.1019C55.6242 46.5358 55.7055 46.8975 55.8683 47.1868C56.031 47.458 56.3113 47.7021 56.7091 47.9191C57.1069 48.118 57.6674 48.344 58.3907 48.5971C59.4575 48.9769 60.2621 49.4379 60.8046 49.9804C61.3651 50.5228 61.6454 51.3094 61.6454 52.34C61.6454 52.9548 61.4826 53.5425 61.1572 54.103C60.8498 54.6635 60.3797 55.1246 59.7468 55.4863C59.1139 55.8298 58.3093 56.0016 57.3329 56.0016Z" fill="#232323"/>
</g>
</svg>
