<svg width="64" height="64" viewBox="0 0 64 64" fill="none" xmlns="http://www.w3.org/2000/svg">
<g id="Icon People">
<path id="Vector" d="M32 22C32 24.6522 30.9464 27.1957 29.0711 29.0711C27.1957 30.9464 24.6522 32 22 32C19.3478 32 16.8043 30.9464 14.9289 29.0711C13.0536 27.1957 12 24.6522 12 22C12 19.3478 13.0536 16.8043 14.9289 14.9289C16.8043 13.0536 19.3478 12 22 12C24.6522 12 27.1957 13.0536 29.0711 14.9289C30.9464 16.8043 32 19.3478 32 22ZM46 32C48.1217 32 50.1566 31.1571 51.6569 29.6569C53.1571 28.1566 54 26.1217 54 24C54 21.8783 53.1571 19.8434 51.6569 18.3431C50.1566 16.8429 48.1217 16 46 16C43.8783 16 41.8434 16.8429 40.3431 18.3431C38.8429 19.8434 38 21.8783 38 24C38 26.1217 38.8429 28.1566 40.3431 29.6569C41.8434 31.1571 43.8783 32 46 32ZM42 42.376V42C42.0029 39.8358 41.3008 37.7296 40 36H53.092C55.796 36 57.992 38.192 57.992 40.9C57.992 40.9 57.992 50 45.992 50C43.6 50 41.684 49.64 40.152 49.06C41.1075 47.3092 41.7147 45.3898 41.94 43.408C41.964 43.16 41.98 42.948 41.988 42.772L42 42.376ZM38 42C38 40.4087 37.3679 38.8826 36.2426 37.7574C35.1174 36.6321 33.5913 36 32 36H12C10.4087 36 8.88258 36.6321 7.75736 37.7574C6.63214 38.8826 6 40.4087 6 42V42.3C6 42.3 6 54 22 54C37.248 54 37.964 43.376 38 42.376V42Z" fill="#63D1D1"/>
</g>
</svg>
