<svg width="64" height="64" viewBox="0 0 64 64" fill="none" xmlns="http://www.w3.org/2000/svg">
<g id="Icon Phone" clip-path="url(#clip0_295_10164)">
<path id="Vector" d="M12 21.125C12 19.5005 12.6532 17.9426 13.8159 16.794C14.9787 15.6453 16.5557 15 18.2 15H36.8C38.4443 15 40.0213 15.6453 41.1841 16.794C42.3468 17.9426 43 19.5005 43 21.125V57.875C43 59.4995 42.3468 61.0574 41.1841 62.206C40.0213 63.3547 38.4443 64 36.8 64H18.2C16.5557 64 14.9787 63.3547 13.8159 62.206C12.6532 61.0574 12 59.4995 12 57.875V21.125ZM30.6 54.8125C30.6 54.0003 30.2734 53.2213 29.692 52.647C29.1107 52.0727 28.3222 51.75 27.5 51.75C26.6778 51.75 25.8893 52.0727 25.308 52.647C24.7266 53.2213 24.4 54.0003 24.4 54.8125C24.4 55.6247 24.7266 56.4037 25.308 56.978C25.8893 57.5523 26.6778 57.875 27.5 57.875C28.3222 57.875 29.1107 57.5523 29.692 56.978C30.2734 56.4037 30.6 55.6247 30.6 54.8125Z" fill="#232323"/>
<path id="Vector_2" d="M52.9661 15.6856L42.5571 24.8333C42.4523 24.9255 42.328 24.993 42.1935 25.0307C42.0591 25.0683 41.9178 25.0752 41.7803 25.0508C41.6428 25.0264 41.5126 24.9714 41.3993 24.8898C41.286 24.8082 41.1925 24.7021 41.1258 24.5794C41.1111 24.5518 39.4249 21.5648 34.935 18.9085C30.4452 16.2523 27.0154 16.2125 26.9815 16.2127C26.8423 16.2127 26.7048 16.1815 26.5792 16.1213C26.4536 16.0611 26.3432 15.9734 26.256 15.8648C26.1689 15.7562 26.1072 15.6294 26.0756 15.4938C26.044 15.3582 26.0433 15.2172 26.0735 15.0812L29.0833 1.55197C29.143 1.28086 29.2816 1.03347 29.4817 0.840923C29.6817 0.648379 29.9341 0.51928 30.2073 0.469862C30.4805 0.420444 30.7622 0.452916 31.017 0.563192C31.2718 0.673468 31.4883 0.856624 31.6393 1.08962L35.1806 6.56117L43.4972 2.07343C43.7108 1.95846 43.9504 1.90062 44.1929 1.90552C44.4354 1.91041 44.6725 1.97788 44.8812 2.10137C45.0899 2.22486 45.2632 2.4002 45.3843 2.61037C45.5053 2.82054 45.57 3.05842 45.572 3.30094L45.6428 12.7508L52.1455 13.2215C52.4227 13.2416 52.6878 13.3435 52.9072 13.5141C53.1266 13.6848 53.2905 13.9166 53.3783 14.1804C53.466 14.4441 53.4736 14.7279 53.4002 14.996C53.3267 15.2641 53.1755 15.5044 52.9655 15.6866L52.9661 15.6856Z" fill="#63D1D1"/>
<rect id="Rectangle 141" x="11" y="28" width="23" height="3" rx="1.5" fill="#63D1D1"/>
<rect id="Rectangle 142" x="7" y="35" width="23" height="3" rx="1.5" fill="#63D1D1"/>
<rect id="Rectangle 143" x="15" y="42" width="16" height="3" rx="1.5" fill="#63D1D1"/>
</g>
<defs>
<clipPath id="clip0_295_10164">
<rect width="64" height="64" fill="white"/>
</clipPath>
</defs>
</svg>
