<svg width="64" height="64" viewBox="0 0 64 64" fill="none" xmlns="http://www.w3.org/2000/svg">
<g id="Icon Calendar">
<rect id="Rectangle 122" x="5" y="18" width="12" height="12" rx="3" fill="#63D1D1"/>
<rect id="Rectangle 123" x="19" y="18" width="12" height="12" rx="3" fill="#63D1D1"/>
<rect id="Rectangle 124" x="33" y="18" width="12" height="12" rx="3" fill="#63D1D1"/>
<rect id="Rectangle 125" x="47" y="18" width="12" height="12" rx="3" fill="#63D1D1"/>
<rect id="Rectangle 126" x="5" y="32" width="12" height="12" rx="3" fill="#63D1D1"/>
<rect id="Rectangle 127" x="19" y="32" width="12" height="12" rx="3" fill="#63D1D1"/>
<rect id="Rectangle 128" x="33" y="32" width="12" height="12" rx="3" fill="#63D1D1"/>
<rect id="Rectangle 129" x="47" y="32" width="12" height="12" rx="3" fill="#63D1D1"/>
<rect id="Rectangle 130" x="5" y="46" width="12" height="12" rx="3" fill="#63D1D1"/>
<rect id="Rectangle 131" x="19" y="46" width="12" height="12" rx="3" fill="#63D1D1"/>
<rect id="Rectangle 132" x="33" y="46" width="12" height="12" rx="3" fill="#63D1D1"/>
<rect id="Rectangle 133" x="47" y="46" width="12" height="12" rx="3" fill="#63D1D1"/>
<path id="Ellipse 25" d="M11 16.0775C11 16.587 11.4165 17.0086 11.9173 16.9151C12.5793 16.7916 13.2127 16.535 13.7779 16.1573C14.6001 15.6079 15.241 14.827 15.6194 13.9134C15.9978 12.9998 16.0969 11.9945 15.9039 11.0245C15.711 10.0546 15.2348 9.16373 14.5355 8.46447C13.8363 7.7652 12.9454 7.289 11.9755 7.09607C11.0055 6.90315 10.0002 7.00216 9.08658 7.3806C8.17295 7.75904 7.39206 8.3999 6.84265 9.22215C6.46501 9.78732 6.2084 10.4207 6.08486 11.0827C5.99139 11.5835 6.41301 12 6.92249 12C7.43197 12 7.83204 11.5784 7.9789 11.0906C8.06851 10.7929 8.20211 10.5085 8.3767 10.2472C8.72338 9.72833 9.21613 9.32394 9.79263 9.08515C10.3691 8.84635 11.0035 8.78387 11.6155 8.90561C12.2275 9.02735 12.7897 9.32783 13.2309 9.76907C13.6722 10.2103 13.9727 10.7725 14.0944 11.3845C14.2161 11.9965 14.1536 12.6309 13.9149 13.2074C13.6761 13.7839 13.2717 14.2766 12.7528 14.6233C12.4915 14.7979 12.2071 14.9315 11.9094 15.0211C11.4216 15.168 11 15.568 11 16.0775Z" fill="#63D1D1"/>
<path id="Ellipse 26" d="M19 16.0775C19 16.587 19.4165 17.0086 19.9173 16.9151C20.5793 16.7916 21.2127 16.535 21.7779 16.1573C22.6001 15.6079 23.241 14.827 23.6194 13.9134C23.9978 12.9998 24.0969 11.9945 23.9039 11.0245C23.711 10.0546 23.2348 9.16373 22.5355 8.46447C21.8363 7.7652 20.9454 7.289 19.9755 7.09607C19.0055 6.90315 18.0002 7.00216 17.0866 7.3806C16.173 7.75904 15.3921 8.3999 14.8427 9.22215C14.465 9.78732 14.2084 10.4207 14.0849 11.0827C13.9914 11.5835 14.413 12 14.9225 12C15.432 12 15.832 11.5784 15.9789 11.0906C16.0685 10.7929 16.2021 10.5085 16.3767 10.2472C16.7234 9.72833 17.2161 9.32394 17.7926 9.08515C18.3691 8.84635 19.0035 8.78387 19.6155 8.90561C20.2275 9.02735 20.7897 9.32783 21.2309 9.76907C21.6722 10.2103 21.9727 10.7725 22.0944 11.3845C22.2161 11.9965 22.1536 12.6309 21.9149 13.2074C21.6761 13.7839 21.2717 14.2766 20.7528 14.6233C20.4915 14.7979 20.2071 14.9315 19.9094 15.0211C19.4216 15.168 19 15.568 19 16.0775Z" fill="#63D1D1"/>
<path id="Ellipse 27" d="M27 16.0775C27 16.587 27.4165 17.0086 27.9173 16.9151C28.5793 16.7916 29.2127 16.535 29.7779 16.1573C30.6001 15.6079 31.241 14.827 31.6194 13.9134C31.9978 12.9998 32.0969 11.9945 31.9039 11.0245C31.711 10.0546 31.2348 9.16373 30.5355 8.46447C29.8363 7.7652 28.9454 7.289 27.9755 7.09607C27.0055 6.90315 26.0002 7.00216 25.0866 7.3806C24.173 7.75904 23.3921 8.3999 22.8427 9.22215C22.465 9.78732 22.2084 10.4207 22.0849 11.0827C21.9914 11.5835 22.413 12 22.9225 12C23.432 12 23.832 11.5784 23.9789 11.0906C24.0685 10.7929 24.2021 10.5085 24.3767 10.2472C24.7234 9.72833 25.2161 9.32394 25.7926 9.08515C26.3691 8.84635 27.0035 8.78387 27.6155 8.90561C28.2275 9.02735 28.7897 9.32783 29.2309 9.76907C29.6722 10.2103 29.9727 10.7725 30.0944 11.3845C30.2161 11.9965 30.1536 12.6309 29.9149 13.2074C29.6761 13.7839 29.2717 14.2766 28.7528 14.6233C28.4915 14.7979 28.2071 14.9315 27.9094 15.0211C27.4216 15.168 27 15.568 27 16.0775Z" fill="#63D1D1"/>
<path id="Ellipse 28" d="M35 16.0775C35 16.587 35.4165 17.0086 35.9173 16.9151C36.5793 16.7916 37.2127 16.535 37.7779 16.1573C38.6001 15.6079 39.241 14.827 39.6194 13.9134C39.9978 12.9998 40.0969 11.9945 39.9039 11.0245C39.711 10.0546 39.2348 9.16373 38.5355 8.46447C37.8363 7.7652 36.9454 7.289 35.9755 7.09607C35.0055 6.90315 34.0002 7.00216 33.0866 7.3806C32.173 7.75904 31.3921 8.3999 30.8427 9.22215C30.465 9.78732 30.2084 10.4207 30.0849 11.0827C29.9914 11.5835 30.413 12 30.9225 12C31.432 12 31.832 11.5784 31.9789 11.0906C32.0685 10.7929 32.2021 10.5085 32.3767 10.2472C32.7234 9.72833 33.2161 9.32394 33.7926 9.08515C34.3691 8.84635 35.0035 8.78387 35.6155 8.90561C36.2275 9.02735 36.7897 9.32783 37.2309 9.76907C37.6722 10.2103 37.9727 10.7725 38.0944 11.3845C38.2161 11.9965 38.1536 12.6309 37.9149 13.2074C37.6761 13.7839 37.2717 14.2766 36.7528 14.6233C36.4915 14.7979 36.2071 14.9315 35.9094 15.0211C35.4216 15.168 35 15.568 35 16.0775Z" fill="#63D1D1"/>
<path id="Ellipse 29" d="M44 16.0775C44 16.587 44.4165 17.0086 44.9173 16.9151C45.5793 16.7916 46.2127 16.535 46.7779 16.1573C47.6001 15.6079 48.241 14.827 48.6194 13.9134C48.9978 12.9998 49.0969 11.9945 48.9039 11.0245C48.711 10.0546 48.2348 9.16373 47.5355 8.46447C46.8363 7.7652 45.9454 7.289 44.9755 7.09607C44.0055 6.90315 43.0002 7.00216 42.0866 7.3806C41.173 7.75904 40.3921 8.3999 39.8427 9.22215C39.465 9.78732 39.2084 10.4207 39.0849 11.0827C38.9914 11.5835 39.413 12 39.9225 12C40.432 12 40.832 11.5784 40.9789 11.0906C41.0685 10.7929 41.2021 10.5085 41.3767 10.2472C41.7234 9.72833 42.2161 9.32394 42.7926 9.08515C43.3691 8.84635 44.0035 8.78387 44.6155 8.90561C45.2275 9.02735 45.7897 9.32783 46.2309 9.76907C46.6722 10.2103 46.9727 10.7725 47.0944 11.3845C47.2161 11.9965 47.1536 12.6309 46.9149 13.2074C46.6761 13.7839 46.2717 14.2766 45.7528 14.6233C45.4915 14.7979 45.2071 14.9315 44.9094 15.0211C44.4216 15.168 44 15.568 44 16.0775Z" fill="#63D1D1"/>
<path id="Ellipse 30" d="M52 16.0775C52 16.587 52.4165 17.0086 52.9173 16.9151C53.5793 16.7916 54.2127 16.535 54.7779 16.1573C55.6001 15.6079 56.241 14.827 56.6194 13.9134C56.9978 12.9998 57.0969 11.9945 56.9039 11.0245C56.711 10.0546 56.2348 9.16373 55.5355 8.46447C54.8363 7.7652 53.9454 7.289 52.9755 7.09607C52.0055 6.90315 51.0002 7.00216 50.0866 7.3806C49.173 7.75904 48.3921 8.3999 47.8427 9.22215C47.465 9.78732 47.2084 10.4207 47.0849 11.0827C46.9914 11.5835 47.413 12 47.9225 12C48.432 12 48.832 11.5784 48.9789 11.0906C49.0685 10.7929 49.2021 10.5085 49.3767 10.2472C49.7234 9.72833 50.2161 9.32394 50.7926 9.08515C51.3691 8.84635 52.0035 8.78387 52.6155 8.90561C53.2275 9.02735 53.7897 9.32783 54.2309 9.76907C54.6722 10.2103 54.9727 10.7725 55.0944 11.3845C55.2161 11.9965 55.1536 12.6309 54.9149 13.2074C54.6761 13.7839 54.2717 14.2766 53.7528 14.6233C53.4915 14.7979 53.2071 14.9315 52.9094 15.0211C52.4216 15.168 52 15.568 52 16.0775Z" fill="#63D1D1"/>
</g>
</svg>
