<svg width="64" height="64" viewBox="0 0 64 64" fill="none" xmlns="http://www.w3.org/2000/svg">
<g id="Icon Arrow">
<path id="Vector" d="M30.1067 16.7732L16.7733 30.1065C16.5306 30.3601 16.3403 30.6592 16.2133 30.9865C15.9466 31.6357 15.9466 32.3639 16.2133 33.0132C16.3403 33.3405 16.5306 33.6396 16.7733 33.8932L30.1067 47.2265C30.3553 47.4751 30.6505 47.6724 30.9753 47.8069C31.3002 47.9415 31.6484 48.0107 32 48.0107C32.7101 48.0107 33.3912 47.7286 33.8933 47.2265C34.3955 46.7244 34.6776 46.0433 34.6776 45.3332C34.6776 44.623 34.3955 43.942 33.8933 43.4398L25.0933 34.6665H45.3333C46.0406 34.6665 46.7189 34.3855 47.219 33.8854C47.7191 33.3854 48 32.7071 48 31.9998C48 31.2926 47.7191 30.6143 47.219 30.1142C46.7189 29.6141 46.0406 29.3332 45.3333 29.3332H25.0933L33.8933 20.5598C34.1433 20.3119 34.3417 20.017 34.4771 19.692C34.6124 19.3671 34.6821 19.0185 34.6821 18.6665C34.6821 18.3145 34.6124 17.9659 34.4771 17.641C34.3417 17.316 34.1433 17.0211 33.8933 16.7732C33.6454 16.5232 33.3505 16.3248 33.0255 16.1895C32.7006 16.0541 32.352 15.9844 32 15.9844C31.648 15.9844 31.2994 16.0541 30.9745 16.1895C30.6495 16.3248 30.3546 16.5232 30.1067 16.7732Z" fill="#232323"/>
</g>
</svg>
