<svg width="220" height="140" viewBox="0 0 220 140" fill="none" xmlns="http://www.w3.org/2000/svg">
<g id="Logo">
<g id="Natali">
<path d="M52.2916 75.943C50.9519 75.943 49.7271 75.5628 48.6171 74.8025C47.5071 74.0422 46.6267 73.0538 45.976 71.8373C45.3253 70.6208 45 69.3092 45 67.9026C45 67.2564 45.0574 66.8002 45.1722 66.5341C45.3253 66.2299 45.555 66.0209 45.8612 65.9068L57.344 61.6871C58.1095 61.421 58.6263 61.1168 58.8942 60.7747C59.1621 60.3945 59.2961 59.8813 59.2961 59.235V57.5243C59.2961 55.8516 58.8942 54.4831 58.0904 53.4186C57.2866 52.3542 56.0426 51.822 54.3585 51.822C53.2485 51.822 52.349 52.0691 51.66 52.5633C50.9711 53.0195 50.6266 53.5897 50.6266 54.274C50.6266 54.5401 50.684 54.7872 50.7988 55.0153C50.9519 55.2434 51.1242 55.4715 51.3155 55.6996C51.5835 56.0417 51.794 56.4029 51.9471 56.783C52.1385 57.1632 52.2342 57.5624 52.2342 57.9805C52.2342 58.8169 51.928 59.4822 51.3155 59.9764C50.7414 60.4706 49.995 60.7177 49.0764 60.7177C48.1195 60.7177 47.3731 60.4516 46.8373 59.9193C46.3014 59.3491 46.0335 58.5698 46.0335 57.5814C46.0335 56.2128 46.5119 54.9773 47.4688 53.8748C48.4257 52.7344 49.6505 51.841 51.1433 51.1947C52.6361 50.5104 54.1671 50.1683 55.7364 50.1683C57.5354 50.1683 59.1047 50.4914 60.4444 51.1377C61.8223 51.7459 62.8941 52.6393 63.6596 53.8178C64.4634 54.9583 64.8653 56.3649 64.8653 58.0376V70.2406C64.8653 71.0009 64.9418 71.6472 65.0949 72.1794C65.2863 72.7116 65.7265 72.9777 66.4155 72.9777C67.1044 72.9777 67.9465 72.8067 68.9417 72.4645V73.662C68.2144 74.1182 67.2575 74.6124 66.071 75.1446C64.9227 75.6389 63.9084 75.886 63.028 75.886C62.2242 75.886 61.5735 75.7149 61.0759 75.3727C60.5784 75.0306 60.2147 74.4984 59.9851 73.7761C59.7554 73.0538 59.6406 72.1984 59.6406 71.21V70.4117L60.7889 71.4951C59.9851 72.1794 59.1047 72.8637 58.1478 73.548C57.1909 74.2323 56.2149 74.8025 55.2197 75.2587C54.2245 75.7149 53.2485 75.943 52.2916 75.943ZM54.8752 72.8067C55.4876 72.8067 56.0809 72.6736 56.6551 72.4075C57.2675 72.1414 57.899 71.7803 58.5497 71.3241C59.0473 70.9439 59.2961 70.3357 59.2961 69.4993V63.2837C59.2961 63.1697 59.2578 63.0936 59.1813 63.0556C59.1047 62.9796 59.009 62.9796 58.8942 63.0556L51.2007 65.8498C50.9711 65.9258 50.7988 66.0969 50.684 66.363C50.6074 66.6291 50.5692 67.0663 50.5692 67.6745C50.5692 68.5109 50.7797 69.3282 51.2007 70.1266C51.6218 70.8869 52.1576 71.5331 52.8083 72.0654C53.4973 72.5596 54.1862 72.8067 54.8752 72.8067Z" fill="white"/>
<path d="M79.4368 76C75.8771 76 74.0973 73.7761 74.0973 69.3282V52.4492H70.3079V51.0807C72.7959 50.6625 74.6523 49.7881 75.8771 48.4576C77.1019 47.127 77.8866 45.2262 78.2311 42.7552H79.6664V50.6815H86.7284L86.1542 52.4492H79.6664V68.872C79.6664 70.3166 79.8961 71.305 80.3554 71.8373C80.8147 72.3695 81.4463 72.6356 82.2501 72.6356C82.8242 72.6356 83.4749 72.5025 84.2022 72.2364C84.9294 71.9703 85.6758 71.6282 86.4413 71.21L87.1877 72.4645C85.7332 73.605 84.317 74.4794 82.939 75.0876C81.5994 75.6959 80.432 76 79.4368 76Z" fill="white"/>
<path d="M97.8192 75.943C96.4795 75.943 95.2547 75.5628 94.1447 74.8025C93.0346 74.0422 92.1543 73.0538 91.5036 71.8373C90.8529 70.6208 90.5276 69.3092 90.5276 67.9026C90.5276 67.2564 90.585 66.8002 90.6998 66.5341C90.8529 66.2299 91.0826 66.0209 91.3888 65.9068L102.872 61.6871C103.637 61.421 104.154 61.1168 104.422 60.7747C104.69 60.3945 104.824 59.8813 104.824 59.235V57.5243C104.824 55.8516 104.422 54.4831 103.618 53.4186C102.814 52.3542 101.57 51.822 99.8861 51.822C98.7761 51.822 97.8766 52.0691 97.1876 52.5633C96.4986 53.0195 96.1542 53.5897 96.1542 54.274C96.1542 54.5401 96.2116 54.7872 96.3264 55.0153C96.4795 55.2434 96.6517 55.4715 96.8431 55.6996C97.111 56.0417 97.3216 56.4029 97.4747 56.783C97.6661 57.1632 97.7617 57.5624 97.7617 57.9805C97.7617 58.8169 97.4555 59.4822 96.8431 59.9764C96.269 60.4706 95.5226 60.7177 94.604 60.7177C93.6471 60.7177 92.9007 60.4516 92.3648 59.9193C91.829 59.3491 91.561 58.5698 91.561 57.5814C91.561 56.2128 92.0395 54.9773 92.9964 53.8748C93.9533 52.7344 95.1781 51.841 96.6709 51.1947C98.1636 50.5104 99.6947 50.1683 101.264 50.1683C103.063 50.1683 104.632 50.4914 105.972 51.1377C107.35 51.7459 108.422 52.6393 109.187 53.8178C109.991 54.9583 110.393 56.3649 110.393 58.0376V70.2406C110.393 71.0009 110.469 71.6472 110.622 72.1794C110.814 72.7116 111.254 72.9777 111.943 72.9777C112.632 72.9777 113.474 72.8067 114.469 72.4645V73.662C113.742 74.1182 112.785 74.6124 111.599 75.1446C110.45 75.6389 109.436 75.886 108.556 75.886C107.752 75.886 107.101 75.7149 106.604 75.3727C106.106 75.0306 105.742 74.4984 105.513 73.7761C105.283 73.0538 105.168 72.1984 105.168 71.21V70.4117L106.316 71.4951C105.513 72.1794 104.632 72.8637 103.675 73.548C102.718 74.2323 101.742 74.8025 100.747 75.2587C99.7521 75.7149 98.7761 75.943 97.8192 75.943ZM100.403 72.8067C101.015 72.8067 101.608 72.6736 102.183 72.4075C102.795 72.1414 103.427 71.7803 104.077 71.3241C104.575 70.9439 104.824 70.3357 104.824 69.4993V63.2837C104.824 63.1697 104.785 63.0936 104.709 63.0556C104.632 62.9796 104.537 62.9796 104.422 63.0556L96.7283 65.8498C96.4986 65.9258 96.3264 66.0969 96.2116 66.363C96.135 66.6291 96.0967 67.0663 96.0967 67.6745C96.0967 68.5109 96.3072 69.3282 96.7283 70.1266C97.1493 70.8869 97.6852 71.5331 98.3359 72.0654C99.0249 72.5596 99.7138 72.8067 100.403 72.8067Z" fill="white"/>
<path d="M116.97 75.5438V74.6314L119.037 73.9471C119.573 73.7951 119.956 73.548 120.186 73.2058C120.453 72.8257 120.587 72.3695 120.587 71.8373V40.9305C120.587 40.1321 120.473 39.5999 120.243 39.3338C120.013 39.0297 119.65 38.8206 119.152 38.7065L116.97 38.1363V37.338C118.846 37.0338 120.511 36.7297 121.965 36.4256C123.42 36.1215 124.893 35.6463 126.386 35L126.96 35.3992C126.654 36.0074 126.444 36.7487 126.329 37.6231C126.214 38.4975 126.157 39.5049 126.157 40.6453V72.1224C126.157 72.6546 126.291 73.0728 126.558 73.3769C126.865 73.643 127.228 73.8331 127.649 73.9471L129.716 74.6314V75.5438H116.97Z" fill="white"/>
<path d="M139.153 44.0668C138.082 44.0668 137.163 43.7056 136.397 42.9833C135.67 42.223 135.307 41.3106 135.307 40.2462C135.307 39.1817 137.628 40.0561 138.355 39.3338C139.121 38.5735 138.082 36.4256 139.153 36.4256C140.225 36.4256 141.124 36.8057 141.852 37.5661C142.617 38.2884 143 39.1817 143 40.2462C143 41.3106 142.617 42.223 141.852 42.9833C141.124 43.7056 140.225 44.0668 139.153 44.0668Z" fill="white"/>
</g>
<g id="Glishko">
<path d="M37.2906 118C34.4442 118 31.7324 117.539 29.1552 116.618C26.6165 115.697 24.347 114.373 22.3468 112.646C20.3851 110.88 18.8272 108.769 17.6732 106.313C16.5577 103.856 16 101.093 16 98.022C16 95.105 16.5577 92.4374 17.6732 90.0193C18.8272 87.6013 20.3658 85.4902 22.2891 83.6863C24.2508 81.8823 26.5203 80.5005 29.0975 79.541C31.6747 78.5814 34.3865 78.1016 37.2329 78.1016C39.1947 78.1016 40.8294 78.236 42.1373 78.5047C43.4836 78.735 44.6183 79.042 45.5415 79.4258C46.5031 79.7713 47.3686 80.0783 48.1379 80.347C48.9072 80.6157 49.7342 80.75 50.6189 80.75C51.042 80.75 51.4267 80.7116 51.7729 80.6349C52.1191 80.5581 52.4268 80.5005 52.696 80.4622L52.8691 80.5773C52.7922 80.9227 52.7153 81.3449 52.6383 81.8439C52.5614 82.3045 52.5229 82.7459 52.5229 83.1681C52.5229 84.2428 52.5999 85.3175 52.7537 86.3922C52.9076 87.4669 53.0615 88.3881 53.2153 89.1557C53.3692 89.885 53.4846 90.3072 53.5615 90.4223H51.8883C51.1574 88.4265 50.0996 86.6417 48.7149 85.068C47.3301 83.456 45.6953 82.1894 43.8105 81.2682C41.9257 80.3086 39.8101 79.8288 37.4637 79.8288C35.3481 79.8288 33.4441 80.3086 31.7516 81.2682C30.0591 82.2277 28.5974 83.5519 27.3665 85.2407C26.1741 86.9296 25.2317 88.8679 24.5393 91.0557C23.8854 93.2434 23.5585 95.5464 23.5585 97.9645C23.5585 100.267 23.8277 102.513 24.3662 104.701C24.9048 106.888 25.7318 108.865 26.8473 110.631C27.9628 112.358 29.4244 113.74 31.2323 114.776C33.0787 115.774 35.2712 116.273 37.8099 116.273C39.0793 116.273 40.5025 116.062 42.0796 115.639C43.6567 115.217 45.0799 114.43 46.3492 113.279V104.931C46.3492 103.703 46.1569 102.897 45.7723 102.513C45.3876 102.129 44.4644 101.803 43.0027 101.534L39.8293 100.901V99.7492H59.1005V100.901L56.7349 101.361C55.3117 101.63 54.3885 101.975 53.9654 102.398C53.5807 102.781 53.3884 103.587 53.3884 104.816V115.755L53.1576 115.87C52.773 115.793 52.4075 115.735 52.0614 115.697C51.7152 115.62 51.2536 115.582 50.6766 115.582C50.0227 115.582 49.2726 115.697 48.4264 115.927C47.5801 116.119 46.6762 116.369 45.7146 116.676C44.5606 116.983 43.2912 117.271 41.9065 117.539C40.5217 117.846 38.9831 118 37.2906 118Z" fill="white"/>
<path d="M61.5703 117.367V116.446L63.6474 115.755C64.1859 115.601 64.5706 115.352 64.8014 115.006C65.0706 114.622 65.2053 114.162 65.2053 113.624V82.081C65.2053 81.275 65.0899 80.7376 64.8591 80.4689C64.6283 80.1619 64.2629 79.9508 63.7628 79.8356L61.5703 79.2599V78.4539C63.4551 78.1468 65.1627 77.7761 66.5708 77.2787C68.2485 76.686 69.9648 75.2467 70.9751 74.2307L71.6098 74.803C71.302 75.4171 71.0905 77.1816 70.9751 78.0644C70.8597 78.9472 70.802 79.9643 70.802 81.1158V113.912C70.802 114.45 70.9366 114.872 71.2059 115.179C71.5136 115.448 71.879 115.639 72.3021 115.755L74.3793 116.446V117.367H61.5703Z" fill="white"/>
<path d="M149.252 117.367V116.446L151.329 115.755C151.906 115.601 152.31 115.352 152.541 115.006C152.772 114.622 152.887 114.162 152.887 113.624V101.246C152.887 99.5189 152.426 98.1948 151.502 97.2736C150.579 96.314 149.233 95.8343 147.463 95.8343C145.733 95.8343 144.348 96.3908 143.309 97.5039C142.309 98.617 141.809 99.9795 141.809 101.592L140.655 95.7191H141.751C142.79 95.2201 143.925 94.6444 145.156 93.9919C146.386 93.3394 147.56 92.7061 148.675 92.092C148.867 92.0152 149.06 91.9576 149.252 91.9193C149.483 91.8425 149.694 91.8041 149.887 91.8041C152.618 91.8041 154.733 92.495 156.234 93.8768C157.734 95.2201 158.484 97.1968 158.484 99.8068V113.912C158.484 114.45 158.638 114.872 158.945 115.179C159.253 115.448 159.619 115.639 160.042 115.755L162.119 116.446V117.367H149.252ZM132.577 117.367V116.446L134.654 115.755C135.193 115.601 135.578 115.352 135.808 115.006C136.078 114.622 136.212 114.162 136.212 113.624V54.9876C136.212 54.1816 136.097 53.6443 135.866 53.3756C135.635 53.0685 135.27 52.8574 134.77 52.7423L132.577 52.1665V51.3605C134.462 51.0535 136.135 50.7464 137.597 50.4393C139.059 50.1323 140.54 49.6525 142.04 49L142.617 49.403C142.309 50.0171 142.098 50.7656 141.982 51.6484C141.867 52.5312 141.809 53.5483 141.809 54.6998V113.912C141.809 114.45 141.944 114.872 142.213 115.179C142.521 115.448 142.886 115.639 143.309 115.755L145.386 116.446V117.367H132.577Z" fill="white"/>
<path d="M164.696 117.367V116.446L166.773 115.755C167.311 115.601 167.696 115.352 167.927 115.006C168.158 114.622 168.273 114.162 168.273 113.624V82.4196C168.273 81.6136 168.158 81.0763 167.927 80.8076C167.696 80.5005 167.331 80.2894 166.831 80.1743L164.638 79.5986V78.7925C166.523 78.4855 168.196 78.1784 169.658 77.8714C170.937 77.6027 172.634 76.432 174.101 75.416L174.678 75.819C174.37 76.4331 174.158 78.1976 174.043 79.0804C173.928 79.9632 173.87 80.9803 173.87 82.1318V113.912C173.87 114.45 174.024 114.872 174.331 115.179C174.639 115.448 175.005 115.639 175.428 115.755L177.505 116.446V117.367H164.696ZM180.505 117.367V116.446L182.121 116.1C182.698 115.908 183.063 115.639 183.217 115.294C183.409 114.91 183.332 114.45 182.986 113.912L176.466 104.067L180.678 100.555L189.679 113.97C190.064 114.546 190.468 115.006 190.891 115.352C191.352 115.659 191.91 115.889 192.564 116.043L194.064 116.388V117.367H180.505ZM173.351 109.134L172.947 106.831L184.486 95.2009C184.794 94.9323 184.89 94.6444 184.775 94.3373C184.698 94.0303 184.448 93.8384 184.025 93.7616L181.371 93.2434V92.2647H192.391V93.2434L189.737 93.8192C189.237 93.9727 188.852 94.1262 188.583 94.2798C188.314 94.3949 188.025 94.606 187.717 94.9131L173.351 109.134Z" fill="white"/>
<path d="M207.364 117.827C204.864 117.827 202.652 117.271 200.729 116.158C198.806 115.006 197.325 113.471 196.286 111.552C195.247 109.594 194.728 107.426 194.728 105.046C194.728 102.436 195.247 100.133 196.286 98.1372C197.325 96.1413 198.806 94.5868 200.729 93.4737C202.652 92.3607 204.864 91.8041 207.364 91.8041C209.903 91.8041 212.115 92.3607 213.999 93.4737C215.884 94.5868 217.346 96.1029 218.384 98.022C219.461 99.9412 220 102.129 220 104.585C220 107.157 219.461 109.441 218.384 111.437C217.346 113.433 215.884 115.006 213.999 116.158C212.115 117.271 209.903 117.827 207.364 117.827ZM207.422 116.158C209.46 116.158 211.038 115.256 212.153 113.452C213.269 111.609 213.826 108.865 213.826 105.219C213.826 101.419 213.269 98.521 212.153 96.5251C211.038 94.4909 209.422 93.4737 207.306 93.4737C205.268 93.4737 203.691 94.3757 202.575 96.1797C201.46 97.9837 200.902 100.728 200.902 104.413C200.902 108.174 201.46 111.072 202.575 113.106C203.691 115.141 205.306 116.158 207.422 116.158Z" fill="white"/>
</g>
<path id="Natali_2" d="M37.519 75.8434L8.6231 43.1025V112.63C8.6231 113.669 8.85152 114.439 9.30838 114.94C9.8033 115.44 10.6789 115.806 11.9353 116.037L15.8185 116.845V118H0V116.845L3.4264 116.094C4.64467 115.863 5.50127 115.517 5.99619 115.055C6.49112 114.593 6.73858 113.804 6.73858 112.688V41.3702C6.73858 40.5233 6.66244 39.8881 6.51015 39.4646C6.35787 39.0027 6.01523 38.6562 5.48223 38.4253C4.98731 38.1943 4.18782 37.9633 3.08376 37.7323L0.228426 37.1549V36H11.4213L36.434 63.3435V41.3702C36.434 40.2923 36.1866 39.5224 35.6916 39.0604C35.1967 38.56 34.3401 38.1943 33.1218 37.9633L29.1815 37.1549V36H45V37.1549L41.6307 37.9056C40.3744 38.1365 39.4987 38.483 39.0038 38.9449C38.547 39.4069 38.3185 40.1961 38.3185 41.3125V75.8434H37.519Z" fill="white"/>
<path id="Rectangle 13" d="M191.334 38.2445L178.497 20.9347C171.988 12.1586 159.598 10.3202 150.822 16.8286L149.538 17.7805L162.375 35.0903C168.884 43.8664 181.274 45.7048 190.05 39.1964L191.334 38.2445Z" fill="#232323" stroke="white" stroke-width="1.27635"/>
<path id="Rectangle 11" d="M176.638 60.3618V38.4216C176.638 27.4955 185.496 18.6382 196.422 18.6382H197.362V40.5783C197.362 51.5045 188.504 60.3618 177.578 60.3618H176.638Z" fill="#232323" stroke="white" stroke-width="1.27635"/>
<path id="Rectangle 16" d="M164.638 77.3469V67C164.638 59.8344 170.279 53.9862 177.362 53.6531V64C177.362 71.1656 171.721 77.0138 164.638 77.3469Z" fill="#232323" stroke="white" stroke-width="1.27635"/>
<path id="Rectangle 12" d="M186.362 41.3618V20.4216C186.362 9.49554 177.504 0.638176 166.578 0.638176H164.638V21.5784C164.638 32.5045 173.496 41.3618 184.422 41.3618H186.362Z" fill="#232323" stroke="white" stroke-width="1.27635"/>
<path id="Rectangle 14" d="M182.362 41.3509V27C182.362 17.0726 174.484 8.98534 164.638 8.64906V23C164.638 32.9274 172.516 41.0147 182.362 41.3509Z" fill="#232323" stroke="white" stroke-width="1.27635"/>
<path id="Rectangle 15" d="M178.362 39.3479V33C178.362 25.282 172.274 18.986 164.638 18.6521V25C164.638 32.718 170.726 39.014 178.362 39.3479Z" fill="#232323" stroke="white" stroke-width="1.27635"/>
<path id="y" d="M83.0144 140C81.7043 140 80.6427 139.595 79.8296 138.784C79.0616 137.974 78.6776 137.051 78.6776 136.016C78.6776 134.845 79.039 133.855 79.7618 133.045C80.4846 132.279 81.3881 131.897 82.4723 131.897C83.1047 131.897 83.6242 132.009 84.0308 132.234C84.4825 132.459 84.8665 132.707 85.1828 132.977C85.4538 133.247 85.7023 133.427 85.9281 133.517C86.154 133.652 86.3799 133.72 86.6057 133.72C87.3285 133.72 87.9384 133.135 88.4353 131.964L92.9754 121.295L82.2012 96.1063C81.9754 95.6561 81.7043 95.341 81.3881 95.1609C81.117 94.9358 80.6879 94.7557 80.1006 94.6207L78 94.148V93H93.7885V94.148L91.4168 94.6882C90.7392 94.8233 90.2197 95.0934 89.8583 95.4986C89.5421 95.8587 89.4969 96.3764 89.7228 97.0517L97.3799 115.622H95.6181L103.614 96.5115C103.84 96.0613 103.885 95.7011 103.749 95.431C103.614 95.1609 103.162 94.9358 102.394 94.7557L99.345 94.148V93H111V94.148L108.493 94.8233C107.906 95.0034 107.476 95.2059 107.205 95.431C106.934 95.6111 106.686 95.9262 106.46 96.3764L90.807 133.045C90.1294 134.62 89.384 135.903 88.5708 136.894C87.8029 137.929 86.9446 138.694 85.9959 139.19C85.0924 139.73 84.0986 140 83.0144 140Z" fill="white"/>
<path id="Glishko_2" d="M121.379 118C119.483 118 117.708 117.742 116.054 117.227C114.4 116.675 113.15 116.179 112.303 115.737C112.383 114.67 112.424 113.511 112.424 112.26C112.424 111.01 112.282 109.814 112 108.673H114.057C114.299 110.145 114.743 111.469 115.389 112.647C116.074 113.824 116.962 114.762 118.051 115.461C119.14 116.124 120.431 116.455 121.924 116.455C123.093 116.455 124.082 116.124 124.889 115.461C125.736 114.762 126.159 113.861 126.159 112.757C126.159 111.837 125.978 111.083 125.615 110.494C125.252 109.906 124.586 109.354 123.618 108.839C122.69 108.324 121.339 107.772 119.564 107.183C117.264 106.337 115.55 105.362 114.42 104.258C113.331 103.155 112.787 101.646 112.787 99.7329C112.787 98.5556 113.17 97.4702 113.936 96.4768C114.703 95.4466 115.792 94.6188 117.204 93.9934C118.616 93.3311 120.249 93 122.105 93C123.356 93 124.384 93.1104 125.191 93.3311C125.998 93.5519 126.845 93.8462 127.732 94.2141H129.185C129.104 95.5386 129.084 96.6792 129.124 97.6358C129.205 98.5923 129.366 99.6777 129.608 100.892H127.975C127.45 98.8315 126.643 97.2678 125.554 96.2009C124.505 95.0971 123.174 94.5453 121.561 94.5453C120.35 94.5453 119.382 94.858 118.656 95.4834C117.93 96.1089 117.567 96.8999 117.567 97.8565C117.567 98.7395 117.748 99.4754 118.111 100.064C118.475 100.616 119.1 101.113 119.987 101.554C120.875 101.959 122.125 102.419 123.739 102.934C126.119 103.706 127.914 104.645 129.124 105.748C130.375 106.852 131 108.453 131 110.55C131 111.801 130.637 112.996 129.911 114.137C129.225 115.277 128.176 116.216 126.764 116.951C125.352 117.65 123.557 118 121.379 118Z" fill="white"/>
<circle id="Ellipse 32" cx="190" cy="26" r="2" fill="white"/>
</g>
</svg>
