<svg width="340" height="216" viewBox="0 0 340 216" fill="none" xmlns="http://www.w3.org/2000/svg">
<path d="M294.119 58.6342L277.049 35.6158C266.643 21.5845 247.196 18.217 232.741 27.5954L249.811 50.6137C260.217 64.6451 279.664 68.0126 294.119 58.6342Z" fill="white" stroke="#232323" stroke-width="4.17784"/>
<path d="M286.703 63.6466V34.9893C286.703 17.5205 273.088 3.23153 255.891 2.15404V30.8114C255.891 48.2802 269.505 62.5691 286.703 63.6466Z" fill="white" stroke="#232323" stroke-width="4.17784"/>
<path d="M280.438 62.5867V40.7338C280.438 26.7274 269.626 15.2462 255.893 14.1808V36.0337C255.893 50.0401 266.705 61.5213 280.438 62.5867Z" fill="white" stroke="#232323" stroke-width="4.17784"/>
<path d="M273.648 60.4699V48.5673C273.648 38.3129 265.871 29.875 255.893 28.8312V40.7338C255.893 50.9883 263.67 59.4261 273.648 60.4699Z" fill="white" stroke="#232323" stroke-width="4.17784"/>
<path d="M81.0362 117.079C78.9647 117.079 77.0707 116.487 75.3543 115.304C73.6379 114.12 72.2766 112.581 71.2705 110.687C70.2643 108.793 69.7612 106.751 69.7612 104.561C69.7612 103.555 69.85 102.845 70.0276 102.431C70.2643 101.957 70.6194 101.632 71.0929 101.454L88.8487 94.8845C90.0324 94.4702 90.8314 93.9967 91.2457 93.464C91.66 92.8722 91.8672 92.0732 91.8672 91.067V88.4036C91.8672 85.7995 91.2457 83.6688 90.0028 82.0116C88.7599 80.3543 86.8364 79.5257 84.2322 79.5257C82.5158 79.5257 81.1249 79.9105 80.0596 80.6799C78.9942 81.3901 78.4616 82.2779 78.4616 83.3432C78.4616 83.7575 78.5504 84.1422 78.7279 84.4974C78.9647 84.8525 79.231 85.2076 79.5269 85.5627C79.9412 86.0954 80.2667 86.6577 80.5035 87.2495C80.7994 87.8414 80.9474 88.4628 80.9474 89.1139C80.9474 90.416 80.4739 91.4517 79.5269 92.2211C78.6391 92.9906 77.485 93.3753 76.0645 93.3753C74.5849 93.3753 73.4308 92.961 72.6022 92.1324C71.7736 91.2446 71.3593 90.0313 71.3593 88.4924C71.3593 86.3617 72.0991 84.4382 73.5787 82.7218C75.0584 80.9462 76.9523 79.5553 79.2606 78.5492C81.5688 77.4838 83.9363 76.9512 86.3629 76.9512C89.1446 76.9512 91.5713 77.4542 93.6428 78.4604C95.7735 79.4074 97.4307 80.7982 98.6144 82.633C99.8573 84.4086 100.479 86.5985 100.479 89.2027V108.201C100.479 109.385 100.597 110.391 100.834 111.22C101.13 112.048 101.81 112.463 102.876 112.463C103.941 112.463 105.243 112.196 106.782 111.664V113.528C105.658 114.238 104.178 115.008 102.343 115.836C100.568 116.606 98.9991 116.99 97.6378 116.99C96.3949 116.99 95.3888 116.724 94.6193 116.191C93.8499 115.659 93.2877 114.83 92.9325 113.706C92.5774 112.581 92.3999 111.249 92.3999 109.711V108.468L94.1755 110.154C92.9325 111.22 91.5713 112.285 90.0916 113.351C88.612 114.416 87.1027 115.304 85.5639 116.014C84.0251 116.724 82.5158 117.079 81.0362 117.079ZM85.0312 112.196C85.9782 112.196 86.8956 111.989 87.7834 111.575C88.7303 111.161 89.7069 110.598 90.7131 109.888C91.4825 109.296 91.8672 108.349 91.8672 107.047V97.3703C91.8672 97.1928 91.808 97.0744 91.6896 97.0152C91.5713 96.8968 91.4233 96.8968 91.2457 97.0152L79.3494 101.365C78.9942 101.484 78.7279 101.75 78.5504 102.164C78.432 102.579 78.3728 103.259 78.3728 104.206C78.3728 105.508 78.6983 106.781 79.3494 108.024C80.0004 109.208 80.829 110.214 81.8352 111.042C82.9005 111.812 83.9659 112.196 85.0312 112.196Z" fill="#232323"/>
<path d="M123.011 117.168C117.506 117.168 114.754 113.706 114.754 106.781V80.5023H108.895V78.3716C112.742 77.7206 115.612 76.3593 117.506 74.2878C119.4 72.2163 120.614 69.257 121.146 65.4099H123.366V77.7502H134.286L133.398 80.5023H123.366V106.071C123.366 108.32 123.721 109.859 124.431 110.687C125.141 111.516 126.118 111.93 127.361 111.93C128.249 111.93 129.255 111.723 130.379 111.309C131.504 110.894 132.658 110.362 133.842 109.711L134.996 111.664C132.747 113.439 130.557 114.801 128.426 115.748C126.355 116.695 124.549 117.168 123.011 117.168Z" fill="#232323"/>
<path d="M151.435 117.079C149.364 117.079 147.47 116.487 145.753 115.304C144.037 114.12 142.676 112.581 141.669 110.687C140.663 108.793 140.16 106.751 140.16 104.561C140.16 103.555 140.249 102.845 140.427 102.431C140.663 101.957 141.018 101.632 141.492 101.454L159.248 94.8845C160.431 94.4702 161.23 93.9967 161.645 93.464C162.059 92.8722 162.266 92.0732 162.266 91.067V88.4036C162.266 85.7995 161.645 83.6688 160.402 82.0116C159.159 80.3543 157.235 79.5257 154.631 79.5257C152.915 79.5257 151.524 79.9105 150.459 80.6799C149.393 81.3901 148.861 82.2779 148.861 83.3432C148.861 83.7575 148.949 84.1422 149.127 84.4974C149.364 84.8525 149.63 85.2076 149.926 85.5627C150.34 86.0954 150.666 86.6577 150.902 87.2495C151.198 87.8414 151.346 88.4628 151.346 89.1139C151.346 90.416 150.873 91.4517 149.926 92.2211C149.038 92.9906 147.884 93.3753 146.464 93.3753C144.984 93.3753 143.83 92.961 143.001 92.1324C142.173 91.2446 141.758 90.0313 141.758 88.4924C141.758 86.3617 142.498 84.4382 143.978 82.7218C145.457 80.9462 147.351 79.5553 149.66 78.5492C151.968 77.4838 154.335 76.9512 156.762 76.9512C159.544 76.9512 161.97 77.4542 164.042 78.4604C166.172 79.4074 167.83 80.7982 169.013 82.633C170.256 84.4086 170.878 86.5985 170.878 89.2027V108.201C170.878 109.385 170.996 110.391 171.233 111.22C171.529 112.048 172.209 112.463 173.275 112.463C174.34 112.463 175.642 112.196 177.181 111.664V113.528C176.057 114.238 174.577 115.008 172.742 115.836C170.966 116.606 169.398 116.99 168.037 116.99C166.794 116.99 165.788 116.724 165.018 116.191C164.249 115.659 163.687 114.83 163.332 113.706C162.976 112.581 162.799 111.249 162.799 109.711V108.468L164.574 110.154C163.332 111.22 161.97 112.285 160.491 113.351C159.011 114.416 157.502 115.304 155.963 116.014C154.424 116.724 152.915 117.079 151.435 117.079ZM155.43 112.196C156.377 112.196 157.295 111.989 158.182 111.575C159.129 111.161 160.106 110.598 161.112 109.888C161.881 109.296 162.266 108.349 162.266 107.047V97.3703C162.266 97.1928 162.207 97.0744 162.089 97.0152C161.97 96.8968 161.822 96.8968 161.645 97.0152L149.748 101.365C149.393 101.484 149.127 101.75 148.949 102.164C148.831 102.579 148.772 103.259 148.772 104.206C148.772 105.508 149.097 106.781 149.748 108.024C150.399 109.208 151.228 110.214 152.234 111.042C153.299 111.812 154.365 112.196 155.43 112.196Z" fill="#232323"/>
<path d="M181.048 116.458V115.037L184.245 113.972C185.073 113.735 185.665 113.351 186.02 112.818C186.434 112.226 186.642 111.516 186.642 110.687V62.5689C186.642 61.326 186.464 60.4974 186.109 60.0831C185.754 59.6097 185.191 59.2841 184.422 59.1066L181.048 58.2188V56.9759C183.949 56.5024 186.523 56.0289 188.772 55.5554C191.021 55.0819 193.3 54.3421 195.608 53.3359L196.496 53.9574C196.023 54.9044 195.697 56.0585 195.519 57.4198C195.342 58.781 195.253 60.3495 195.253 62.1251V111.131C195.253 111.96 195.46 112.611 195.875 113.084C196.348 113.499 196.91 113.794 197.561 113.972L200.757 115.037V116.458H181.048Z" fill="#232323"/>
<path d="M215.35 67.4518C213.693 67.4518 212.272 66.8895 211.088 65.765C209.964 64.5813 209.402 63.1608 209.402 61.5036C209.402 59.8464 212.991 61.2077 214.116 60.0831C215.3 58.8994 213.693 55.5554 215.35 55.5554C217.007 55.5554 218.398 56.1473 219.522 57.331C220.706 58.4555 221.298 59.8464 221.298 61.5036C221.298 63.1608 220.706 64.5813 219.522 65.765C218.398 66.8895 217.007 67.4518 215.35 67.4518Z" fill="#232323"/>
<path d="M58.8693 183.167C54.4896 183.167 50.3169 182.457 46.3515 181.036C42.4452 179.616 38.9532 177.574 35.8756 174.911C32.8571 172.188 30.46 168.933 28.6845 165.145C26.9681 161.357 26.1099 157.096 26.1099 152.361C26.1099 147.863 26.9681 143.749 28.6845 140.02C30.46 136.292 32.8275 133.037 35.7868 130.255C38.8053 127.473 42.2972 125.342 46.2627 123.863C50.2282 122.383 54.4008 121.643 58.7805 121.643C61.799 121.643 64.3144 121.85 66.3268 122.265C68.3983 122.62 70.1442 123.093 71.5647 123.685C73.0444 124.218 74.376 124.691 75.5598 125.106C76.7435 125.52 78.016 125.727 79.3773 125.727C80.0283 125.727 80.6202 125.668 81.1529 125.55C81.6855 125.431 82.159 125.342 82.5733 125.283L82.8396 125.461C82.7213 125.993 82.6029 126.644 82.4845 127.414C82.3662 128.124 82.307 128.805 82.307 129.456C82.307 131.113 82.4253 132.77 82.6621 134.427C82.8988 136.085 83.1356 137.505 83.3723 138.689C83.6091 139.813 83.7866 140.464 83.905 140.642H81.3304C80.2059 137.564 78.5783 134.812 76.4476 132.386C74.3169 129.9 71.8015 127.947 68.9013 126.526C66.0012 125.046 62.746 124.307 59.1357 124.307C55.8804 124.307 52.9507 125.046 50.3465 126.526C47.7423 128.006 45.4933 130.048 43.5993 132.652C41.7646 135.256 40.3145 138.245 39.2492 141.619C38.243 144.992 37.7399 148.543 37.7399 152.272C37.7399 155.823 38.1542 159.286 38.9828 162.659C39.8114 166.033 41.0839 169.081 42.8003 171.803C44.5167 174.467 46.7658 176.597 49.5475 178.195C52.3885 179.734 55.7621 180.504 59.6683 180.504C61.6215 180.504 63.8113 180.178 66.238 179.527C68.6646 178.876 70.8545 177.663 72.8076 175.887V163.014C72.8076 161.12 72.5117 159.877 71.9198 159.286C71.328 158.694 69.9075 158.191 67.6584 157.776L62.7756 156.8V155.024H92.4278V156.8L88.7878 157.51C86.598 157.924 85.1775 158.457 84.5265 159.108C83.9346 159.7 83.6387 160.943 83.6387 162.837V179.705L83.2835 179.882C82.6917 179.764 82.1294 179.675 81.5967 179.616C81.0641 179.498 80.3538 179.438 79.466 179.438C78.4599 179.438 77.3058 179.616 76.0037 179.971C74.7016 180.267 73.3107 180.652 71.8311 181.125C70.0555 181.599 68.1023 182.043 65.9716 182.457C63.8409 182.93 61.4735 183.167 58.8693 183.167Z" fill="#232323"/>
<path d="M96.2279 182.191V180.77L99.424 179.705C100.253 179.468 100.844 179.083 101.2 178.551C101.614 177.959 101.821 177.248 101.821 176.42V127.779C101.821 126.537 101.643 125.708 101.288 125.294C100.933 124.82 100.371 124.495 99.6015 124.317L96.2279 123.429V122.186C99.1281 121.713 101.755 121.141 103.922 120.374C106.504 119.46 109.144 117.241 110.699 115.674L111.675 116.557C111.202 117.504 110.876 120.225 110.699 121.586C110.521 122.947 110.433 124.516 110.433 126.291V176.864C110.433 177.692 110.64 178.343 111.054 178.817C111.528 179.231 112.09 179.527 112.741 179.705L115.937 180.77V182.191H96.2279Z" fill="#232323"/>
<path d="M231.142 182.191V180.77L234.338 179.705C235.226 179.468 235.847 179.083 236.203 178.551C236.558 177.959 236.735 177.248 236.735 176.42V157.332C236.735 154.669 236.025 152.627 234.605 151.207C233.184 149.727 231.113 148.987 228.39 148.987C225.727 148.987 223.596 149.845 221.998 151.562C220.459 153.278 219.69 155.379 219.69 157.865L217.914 148.81H219.601C221.199 148.04 222.945 147.152 224.839 146.146C226.733 145.14 228.538 144.164 230.254 143.217C230.55 143.098 230.846 143.009 231.142 142.95C231.497 142.832 231.823 142.773 232.119 142.773C236.321 142.773 239.576 143.838 241.884 145.969C244.193 148.04 245.347 151.088 245.347 155.113V176.864C245.347 177.692 245.584 178.343 246.057 178.817C246.531 179.231 247.093 179.527 247.744 179.705L250.94 180.77V182.191H231.142ZM205.485 182.191V180.77L208.681 179.705C209.51 179.468 210.102 179.083 210.457 178.551C210.871 177.959 211.078 177.248 211.078 176.42V86.0011C211.078 84.7582 210.901 83.9296 210.545 83.5153C210.19 83.0418 209.628 82.7163 208.859 82.5387L205.485 81.6509V80.408C208.385 79.9345 210.96 79.461 213.209 78.9875C215.458 78.5141 217.737 77.7742 220.045 76.7681L220.933 77.3895C220.459 78.3365 220.134 79.4906 219.956 80.8519C219.778 82.2132 219.69 83.7816 219.69 85.5572V176.864C219.69 177.692 219.897 178.343 220.311 178.817C220.785 179.231 221.347 179.527 221.998 179.705L225.194 180.77V182.191H205.485Z" fill="#232323"/>
<path d="M254.905 182.191V180.77L258.101 179.705C258.93 179.468 259.522 179.083 259.877 178.551C260.232 177.959 260.409 177.248 260.409 176.42V128.302C260.409 127.059 260.232 126.23 259.877 125.816C259.522 125.342 258.959 125.017 258.19 124.839L254.816 123.951V122.709C257.716 122.235 260.291 121.762 262.54 121.288C264.508 120.874 267.119 119.069 269.376 117.502L270.264 118.123C269.79 119.07 269.465 121.791 269.287 123.152C269.11 124.514 269.021 126.082 269.021 127.858V176.864C269.021 177.692 269.258 178.343 269.731 178.817C270.205 179.231 270.767 179.527 271.418 179.705L274.614 180.77V182.191H254.905ZM279.231 182.191V180.77L281.716 180.237C282.604 179.941 283.166 179.527 283.403 178.994C283.699 178.403 283.581 177.692 283.048 176.864L273.016 161.683L279.497 156.267L293.346 176.953C293.938 177.84 294.56 178.551 295.211 179.083C295.921 179.557 296.779 179.912 297.785 180.149L300.094 180.681V182.191H279.231ZM268.222 169.495L267.601 165.944L285.356 148.011C285.83 147.596 285.978 147.152 285.8 146.679C285.682 146.205 285.297 145.91 284.646 145.791L280.562 144.992V143.483H297.519V144.992L293.435 145.88C292.666 146.117 292.074 146.353 291.66 146.59C291.245 146.768 290.801 147.093 290.328 147.567L268.222 169.495Z" fill="#232323"/>
<path d="M320.558 182.901C316.711 182.901 313.308 182.043 310.348 180.326C307.389 178.551 305.11 176.183 303.512 173.224C301.914 170.205 301.115 166.861 301.115 163.192C301.115 159.167 301.914 155.616 303.512 152.538C305.11 149.461 307.389 147.064 310.348 145.347C313.308 143.631 316.711 142.773 320.558 142.773C324.464 142.773 327.867 143.631 330.767 145.347C333.668 147.064 335.917 149.401 337.515 152.361C339.172 155.32 340.001 158.694 340.001 162.482C340.001 166.447 339.172 169.969 337.515 173.046C335.917 176.124 333.668 178.551 330.767 180.326C327.867 182.043 324.464 182.901 320.558 182.901ZM320.647 180.326C323.784 180.326 326.21 178.935 327.927 176.154C329.643 173.313 330.501 169.081 330.501 163.458C330.501 157.599 329.643 153.13 327.927 150.053C326.21 146.916 323.724 145.347 320.469 145.347C317.332 145.347 314.906 146.738 313.189 149.52C311.473 152.302 310.615 156.533 310.615 162.215C310.615 168.015 311.473 172.484 313.189 175.621C314.906 178.758 317.391 180.326 320.647 180.326Z" fill="#232323"/>
<path d="M58.3278 117.136L13.4056 66.7987V173.694C13.4056 175.292 13.7607 176.476 14.471 177.245C15.2404 178.014 16.6017 178.577 18.5548 178.932L24.5918 180.175V181.95H0V180.175L5.32674 179.021C7.22069 178.665 8.55238 178.133 9.3218 177.423C10.0912 176.712 10.4759 175.499 10.4759 173.783V64.1354C10.4759 62.8333 10.3576 61.8567 10.1208 61.2056C9.88406 60.4954 9.35139 59.9627 8.52279 59.6076C7.75337 59.2525 6.51046 58.8974 4.79407 58.5423L0.355116 57.6545V55.8789H17.7558L56.641 97.9184V64.1354C56.641 62.4781 56.2563 61.2944 55.4869 60.5842C54.7175 59.8148 53.3858 59.2525 51.4918 58.8974L45.3661 57.6545V55.8789H69.9579V57.6545L64.7199 58.8086C62.7668 59.1637 61.4055 59.6964 60.6361 60.4066C59.9258 61.1169 59.5707 62.3302 59.5707 64.0466V117.136H58.3278Z" fill="#232323"/>
<path d="M273.127 90.8019V62.1445C273.127 44.6758 286.741 30.3868 303.939 29.3093V57.9667C303.939 75.4354 290.324 89.7244 273.127 90.8019Z" fill="white" stroke="#232323" stroke-width="4.17784"/>
<path d="M256.937 117.905V101.834C256.937 92.446 264.015 84.7109 273.126 83.6743V99.7454C273.126 109.134 266.048 116.869 256.937 117.905Z" fill="white" stroke="#232323" stroke-width="4.17784"/>
<path d="M127.842 215.785C125.823 215.785 124.187 215.158 122.933 213.905C121.75 212.652 121.158 211.224 121.158 209.623C121.158 207.812 121.715 206.281 122.829 205.027C123.943 203.844 125.336 203.252 127.007 203.252C127.982 203.252 128.782 203.426 129.409 203.774C130.105 204.122 130.697 204.505 131.185 204.923C131.602 205.341 131.985 205.619 132.333 205.758C132.682 205.967 133.03 206.072 133.378 206.072C134.492 206.072 135.432 205.166 136.198 203.356L143.196 186.854L126.589 147.895C126.241 147.199 125.823 146.712 125.336 146.433C124.918 146.085 124.256 145.806 123.351 145.598L120.113 144.866V143.091H144.449V144.866L140.794 145.702C139.749 145.911 138.948 146.329 138.391 146.955C137.904 147.512 137.834 148.313 138.182 149.358L149.985 178.08H147.269L159.594 148.522C159.942 147.826 160.012 147.269 159.803 146.851C159.594 146.433 158.898 146.085 157.714 145.806L153.014 144.866V143.091H170.978V144.866L167.114 145.911C166.209 146.189 165.547 146.503 165.129 146.851C164.712 147.129 164.329 147.617 163.981 148.313L139.854 205.027C138.809 207.464 137.66 209.449 136.407 210.981C135.223 212.582 133.9 213.766 132.438 214.532C131.045 215.367 129.513 215.785 127.842 215.785Z" fill="#232323"/>
<path d="M187.666 183.308C184.884 183.308 182.28 182.893 179.853 182.065C177.427 181.177 175.592 180.378 174.349 179.668C174.468 177.951 174.527 176.087 174.527 174.075C174.527 172.062 174.32 170.139 173.905 168.304H176.924C177.279 170.671 177.93 172.802 178.877 174.696C179.883 176.59 181.185 178.099 182.783 179.224C184.381 180.289 186.275 180.822 188.465 180.822C190.181 180.822 191.631 180.289 192.815 179.224C194.058 178.099 194.68 176.649 194.68 174.874C194.68 173.394 194.413 172.181 193.881 171.234C193.348 170.287 192.371 169.399 190.951 168.57C189.59 167.742 187.607 166.854 185.003 165.907C181.629 164.546 179.114 162.977 177.456 161.202C175.858 159.426 175.059 157 175.059 153.922C175.059 152.028 175.622 150.282 176.746 148.684C177.871 147.027 179.469 145.695 181.54 144.689C183.612 143.623 186.009 143.091 188.731 143.091C190.566 143.091 192.075 143.268 193.259 143.623C194.443 143.979 195.686 144.452 196.988 145.044H199.119C199 147.175 198.971 149.009 199.03 150.548C199.148 152.087 199.385 153.833 199.74 155.786H197.343C196.574 152.472 195.39 149.956 193.792 148.24C192.253 146.464 190.3 145.577 187.932 145.577C186.157 145.577 184.736 146.08 183.671 147.086C182.606 148.092 182.073 149.365 182.073 150.903C182.073 152.324 182.339 153.508 182.872 154.455C183.405 155.342 184.322 156.141 185.624 156.852C186.926 157.503 188.761 158.242 191.128 159.071C194.62 160.314 197.254 161.823 199.03 163.599C200.864 165.374 201.782 167.949 201.782 171.323C201.782 173.335 201.249 175.258 200.184 177.093C199.178 178.928 197.639 180.437 195.567 181.621C193.496 182.745 190.862 183.308 187.666 183.308Z" fill="#232323"/>
</svg>
