<svg width="260" height="70" viewBox="0 0 260 70" fill="none" xmlns="http://www.w3.org/2000/svg">
<rect width="260" height="70" rx="16.4251" fill="#232323"/>
<path d="M60.0601 53.3952C57.8065 55.506 55.3459 55.1727 52.9774 54.1728C50.4708 53.1507 48.1712 53.1063 45.5267 54.1728C42.2153 55.5504 40.4676 55.1505 38.4899 53.3952C27.2679 42.2188 28.9237 25.1987 41.6634 24.5766C44.7678 24.7321 46.9294 26.2208 48.7461 26.3541C51.4596 25.8209 54.0582 24.2877 56.9556 24.4877C60.428 24.7543 63.0496 26.0875 64.7743 28.4872C57.5995 32.6422 59.3012 41.7744 65.8781 44.3296C64.5673 47.6625 62.8656 50.9732 60.0371 53.4174L60.0601 53.3952ZM48.5162 24.4433C48.1712 19.4883 52.3335 15.3999 57.1166 15C57.7835 20.7326 51.7356 24.9987 48.5162 24.4433Z" fill="white"/>
<path d="M81.4668 25V14.0773H86.2415C87.4274 14.0773 88.4677 14.3062 89.3623 14.7639C90.2569 15.2216 90.9539 15.8561 91.4532 16.6675C91.9526 17.4789 92.2022 18.436 92.2022 19.5386C92.2022 20.6309 91.9526 21.588 91.4532 22.4098C90.9539 23.2212 90.2569 23.8557 89.3623 24.3134C88.4677 24.7711 87.4274 25 86.2415 25H81.4668ZM83.4953 23.2836H86.1479C86.9697 23.2836 87.6771 23.1275 88.27 22.8155C88.8734 22.5034 89.3363 22.0665 89.6588 21.5047C89.9917 20.943 90.1581 20.2876 90.1581 19.5386C90.1581 18.7793 89.9917 18.1239 89.6588 17.5726C89.3363 17.0108 88.8734 16.5739 88.27 16.2618C87.6771 15.9498 86.9697 15.7937 86.1479 15.7937H83.4953V23.2836ZM97.9159 25.1092C97.0629 25.1092 96.3035 24.9272 95.6378 24.5631C94.972 24.1886 94.4467 23.6789 94.0618 23.0339C93.6769 22.389 93.4844 21.6556 93.4844 20.8338C93.4844 20.0016 93.6769 19.2682 94.0618 18.6336C94.4467 17.9887 94.972 17.4841 95.6378 17.12C96.3035 16.756 97.0629 16.5739 97.9159 16.5739C98.7793 16.5739 99.5439 16.756 100.21 17.12C100.886 17.4841 101.411 17.9835 101.786 18.618C102.171 19.2526 102.363 19.9912 102.363 20.8338C102.363 21.6556 102.171 22.389 101.786 23.0339C101.411 23.6789 100.886 24.1886 100.21 24.5631C99.5439 24.9272 98.7793 25.1092 97.9159 25.1092ZM97.9159 23.4396C98.3944 23.4396 98.8209 23.3356 99.1954 23.1275C99.5699 22.9195 99.8612 22.6178 100.069 22.2225C100.288 21.8272 100.397 21.3643 100.397 20.8338C100.397 20.2928 100.288 19.8299 100.069 19.445C99.8612 19.0497 99.5699 18.7481 99.1954 18.54C98.8209 18.3319 98.3996 18.2279 97.9315 18.2279C97.453 18.2279 97.0265 18.3319 96.652 18.54C96.2879 18.7481 95.9966 19.0497 95.7782 19.445C95.5597 19.8299 95.4505 20.2928 95.4505 20.8338C95.4505 21.3643 95.5597 21.8272 95.7782 22.2225C95.9966 22.6178 96.2879 22.9195 96.652 23.1275C97.0265 23.3356 97.4478 23.4396 97.9159 23.4396ZM105.841 25L102.782 16.6675H104.624L107.245 24.017H106.371L109.118 16.6675H110.756L113.424 24.017H112.566L115.266 16.6675H116.998L113.924 25H112.051L109.617 18.4932H110.194L107.713 25H105.841ZM123.067 16.5739C123.732 16.5739 124.325 16.7039 124.846 16.964C125.376 17.2241 125.792 17.6246 126.094 18.1655C126.395 18.696 126.546 19.3826 126.546 20.2252V25H124.596V20.4749C124.596 19.7363 124.419 19.185 124.065 18.8209C123.722 18.4568 123.238 18.2747 122.614 18.2747C122.156 18.2747 121.751 18.3684 121.397 18.5556C121.043 18.7429 120.768 19.0237 120.57 19.3982C120.383 19.7623 120.289 20.2252 120.289 20.787V25H118.339V16.6675H120.196V18.9145L119.868 18.2279C120.159 17.6974 120.58 17.2917 121.132 17.0108C121.694 16.7195 122.338 16.5739 123.067 16.5739ZM129.021 25V13.4219H130.971V25H129.021ZM137.276 25.1092C136.423 25.1092 135.664 24.9272 134.998 24.5631C134.332 24.1886 133.807 23.6789 133.422 23.0339C133.037 22.389 132.845 21.6556 132.845 20.8338C132.845 20.0016 133.037 19.2682 133.422 18.6336C133.807 17.9887 134.332 17.4841 134.998 17.12C135.664 16.756 136.423 16.5739 137.276 16.5739C138.139 16.5739 138.904 16.756 139.57 17.12C140.246 17.4841 140.771 17.9835 141.146 18.618C141.531 19.2526 141.723 19.9912 141.723 20.8338C141.723 21.6556 141.531 22.389 141.146 23.0339C140.771 23.6789 140.246 24.1886 139.57 24.5631C138.904 24.9272 138.139 25.1092 137.276 25.1092ZM137.276 23.4396C137.755 23.4396 138.181 23.3356 138.556 23.1275C138.93 22.9195 139.221 22.6178 139.429 22.2225C139.648 21.8272 139.757 21.3643 139.757 20.8338C139.757 20.2928 139.648 19.8299 139.429 19.445C139.221 19.0497 138.93 18.7481 138.556 18.54C138.181 18.3319 137.76 18.2279 137.292 18.2279C136.813 18.2279 136.387 18.3319 136.012 18.54C135.648 18.7481 135.357 19.0497 135.138 19.445C134.92 19.8299 134.811 20.2928 134.811 20.8338C134.811 21.3643 134.92 21.8272 135.138 22.2225C135.357 22.6178 135.648 22.9195 136.012 23.1275C136.387 23.3356 136.808 23.4396 137.276 23.4396ZM148.615 25V23.3148L148.506 22.9559V20.0068C148.506 19.4346 148.334 18.9925 147.991 18.6804C147.648 18.358 147.128 18.1967 146.431 18.1967C145.963 18.1967 145.5 18.2695 145.042 18.4152C144.595 18.5608 144.215 18.7637 143.903 19.0237L143.138 17.6038C143.586 17.2605 144.116 17.0056 144.73 16.8392C145.354 16.6623 145.999 16.5739 146.665 16.5739C147.872 16.5739 148.803 16.8652 149.458 17.4477C150.124 18.0199 150.457 18.9093 150.457 20.116V25H148.615ZM145.994 25.1092C145.37 25.1092 144.824 25.0052 144.355 24.7971C143.887 24.5787 143.523 24.2822 143.263 23.9077C143.014 23.5228 142.889 23.0911 142.889 22.6126C142.889 22.1445 142.998 21.7232 143.216 21.3487C143.445 20.9742 143.815 20.6777 144.324 20.4593C144.834 20.2408 145.51 20.1316 146.353 20.1316H148.771V21.4267H146.493C145.827 21.4267 145.38 21.5359 145.151 21.7544C144.922 21.9624 144.808 22.2225 144.808 22.5346C144.808 22.8883 144.948 23.1691 145.229 23.3772C145.51 23.5852 145.9 23.6893 146.4 23.6893C146.878 23.6893 147.305 23.58 147.679 23.3616C148.064 23.1431 148.34 22.8207 148.506 22.3942L148.834 23.5644C148.647 24.0534 148.308 24.4331 147.82 24.7035C147.341 24.974 146.732 25.1092 145.994 25.1092ZM156.501 25.1092C155.7 25.1092 154.978 24.9324 154.333 24.5787C153.698 24.2146 153.199 23.7153 152.835 23.0807C152.47 22.4462 152.288 21.6972 152.288 20.8338C152.288 19.9704 152.47 19.2214 152.835 18.5868C153.199 17.9523 153.698 17.4581 154.333 17.1044C154.978 16.7508 155.7 16.5739 156.501 16.5739C157.198 16.5739 157.823 16.73 158.374 17.042C158.925 17.3437 159.362 17.8066 159.685 18.4308C160.007 19.0549 160.168 19.8559 160.168 20.8338C160.168 21.8012 160.012 22.6022 159.7 23.2368C159.388 23.8609 158.956 24.329 158.405 24.6411C157.854 24.9532 157.219 25.1092 156.501 25.1092ZM156.736 23.4396C157.204 23.4396 157.62 23.3356 157.984 23.1275C158.358 22.9195 158.655 22.6178 158.873 22.2225C159.102 21.8272 159.217 21.3643 159.217 20.8338C159.217 20.2928 159.102 19.8299 158.873 19.445C158.655 19.0497 158.358 18.7481 157.984 18.54C157.62 18.3319 157.204 18.2279 156.736 18.2279C156.267 18.2279 155.846 18.3319 155.472 18.54C155.108 18.7481 154.811 19.0497 154.582 19.445C154.364 19.8299 154.255 20.2928 154.255 20.8338C154.255 21.3643 154.364 21.8272 154.582 22.2225C154.811 22.6178 155.108 22.9195 155.472 23.1275C155.846 23.3356 156.267 23.4396 156.736 23.4396ZM159.263 25V23.0339L159.341 20.8182L159.185 18.6024V13.4219H161.12V25H159.263ZM171.745 25.1092C170.892 25.1092 170.132 24.9272 169.467 24.5631C168.801 24.1886 168.275 23.6789 167.891 23.0339C167.506 22.389 167.313 21.6556 167.313 20.8338C167.313 20.0016 167.506 19.2682 167.891 18.6336C168.275 17.9887 168.801 17.4841 169.467 17.12C170.132 16.756 170.892 16.5739 171.745 16.5739C172.608 16.5739 173.373 16.756 174.039 17.12C174.715 17.4841 175.24 17.9835 175.615 18.618C175.999 19.2526 176.192 19.9912 176.192 20.8338C176.192 21.6556 175.999 22.389 175.615 23.0339C175.24 23.6789 174.715 24.1886 174.039 24.5631C173.373 24.9272 172.608 25.1092 171.745 25.1092ZM171.745 23.4396C172.223 23.4396 172.65 23.3356 173.024 23.1275C173.399 22.9195 173.69 22.6178 173.898 22.2225C174.117 21.8272 174.226 21.3643 174.226 20.8338C174.226 20.2928 174.117 19.8299 173.898 19.445C173.69 19.0497 173.399 18.7481 173.024 18.54C172.65 18.3319 172.228 18.2279 171.76 18.2279C171.282 18.2279 170.855 18.3319 170.481 18.54C170.117 18.7481 169.825 19.0497 169.607 19.445C169.389 19.8299 169.279 20.2928 169.279 20.8338C169.279 21.3643 169.389 21.8272 169.607 22.2225C169.825 22.6178 170.117 22.9195 170.481 23.1275C170.855 23.3356 171.277 23.4396 171.745 23.4396ZM182.785 16.5739C183.451 16.5739 184.044 16.7039 184.564 16.964C185.094 17.2241 185.51 17.6246 185.812 18.1655C186.114 18.696 186.265 19.3826 186.265 20.2252V25H184.314V20.4749C184.314 19.7363 184.137 19.185 183.784 18.8209C183.44 18.4568 182.957 18.2747 182.332 18.2747C181.875 18.2747 181.469 18.3684 181.115 18.5556C180.762 18.7429 180.486 19.0237 180.288 19.3982C180.101 19.7623 180.007 20.2252 180.007 20.787V25H178.057V16.6675H179.914V18.9145L179.586 18.2279C179.877 17.6974 180.299 17.2917 180.85 17.0108C181.412 16.7195 182.057 16.5739 182.785 16.5739ZM196.188 25.1092C195.272 25.1092 194.565 24.8752 194.066 24.4071C193.566 23.9285 193.317 23.2264 193.317 22.3005V14.8263H195.267V22.2537C195.267 22.649 195.366 22.9559 195.564 23.1743C195.772 23.3928 196.058 23.502 196.422 23.502C196.859 23.502 197.223 23.3876 197.514 23.1587L198.06 24.5475C197.831 24.7347 197.55 24.8752 197.218 24.9688C196.885 25.0624 196.541 25.1092 196.188 25.1092ZM191.943 18.2903V16.73H197.498V18.2903H191.943ZM204.393 16.5739C205.058 16.5739 205.651 16.7039 206.172 16.964C206.702 17.2241 207.118 17.6246 207.42 18.1655C207.721 18.696 207.872 19.3826 207.872 20.2252V25H205.922V20.4749C205.922 19.7363 205.745 19.185 205.391 18.8209C205.048 18.4568 204.564 18.2747 203.94 18.2747C203.482 18.2747 203.077 18.3684 202.723 18.5556C202.369 18.7429 202.094 19.0237 201.896 19.3982C201.709 19.7623 201.615 20.2252 201.615 20.787V25H199.665V13.4219H201.615V18.9145L201.194 18.2279C201.485 17.6974 201.906 17.2917 202.458 17.0108C203.02 16.7195 203.664 16.5739 204.393 16.5739ZM214.278 25.1092C213.353 25.1092 212.541 24.9272 211.844 24.5631C211.158 24.1886 210.622 23.6789 210.237 23.0339C209.863 22.389 209.675 21.6556 209.675 20.8338C209.675 20.0016 209.857 19.2682 210.221 18.6336C210.596 17.9887 211.106 17.4841 211.751 17.12C212.406 16.756 213.15 16.5739 213.982 16.5739C214.793 16.5739 215.516 16.7508 216.151 17.1044C216.785 17.4581 217.285 17.9575 217.649 18.6024C218.013 19.2474 218.195 20.0068 218.195 20.8806C218.195 20.9638 218.19 21.0574 218.179 21.1614C218.179 21.2655 218.174 21.3643 218.164 21.4579H211.22V20.1628H217.134L216.369 20.5685C216.38 20.09 216.281 19.6687 216.073 19.3046C215.865 18.9405 215.579 18.6544 215.215 18.4464C214.861 18.2383 214.45 18.1343 213.982 18.1343C213.503 18.1343 213.082 18.2383 212.718 18.4464C212.364 18.6544 212.084 18.9457 211.875 19.3202C211.678 19.6843 211.579 20.116 211.579 20.6153V20.9274C211.579 21.4267 211.693 21.8688 211.922 22.2537C212.151 22.6386 212.474 22.9351 212.89 23.1431C213.306 23.3512 213.784 23.4552 214.325 23.4552C214.793 23.4552 215.215 23.3824 215.589 23.2368C215.964 23.0911 216.297 22.8623 216.588 22.5502L217.633 23.7517C217.259 24.1886 216.785 24.5267 216.213 24.7659C215.652 24.9948 215.007 25.1092 214.278 25.1092Z" fill="white"/>
<path d="M79.8563 53L88.9106 32.8792H92.5899L101.673 53H97.7638L89.9742 34.8626H91.4688L83.708 53H79.8563ZM84.0242 48.3435L85.0302 45.4116H95.8954L96.9014 48.3435H84.0242ZM112.395 53.2012C111.15 53.2012 110.009 52.9138 108.975 52.3389C107.959 51.764 107.145 50.9017 106.531 49.7519C105.937 48.583 105.64 47.1075 105.64 45.3254C105.64 43.5241 105.928 42.0485 106.503 40.8988C107.097 39.749 107.901 38.8963 108.917 38.3406C109.933 37.7657 111.092 37.4783 112.395 37.4783C113.909 37.4783 115.241 37.804 116.391 38.4556C117.559 39.1071 118.479 40.0173 119.15 41.1862C119.84 42.3552 120.185 43.7349 120.185 45.3254C120.185 46.9159 119.84 48.3052 119.15 49.4932C118.479 50.6622 117.559 51.5724 116.391 52.2239C115.241 52.8754 113.909 53.2012 112.395 53.2012ZM103.887 58.5763V37.6507H107.307V41.2725L107.192 45.3541L107.48 49.4357V58.5763H103.887ZM111.993 50.1256C112.855 50.1256 113.622 49.934 114.292 49.5507C114.982 49.1675 115.528 48.6118 115.931 47.8836C116.333 47.1554 116.534 46.3027 116.534 45.3254C116.534 44.3289 116.333 43.4762 115.931 42.7671C115.528 42.039 114.982 41.4833 114.292 41.1C113.622 40.7167 112.855 40.5251 111.993 40.5251C111.13 40.5251 110.354 40.7167 109.664 41.1C108.975 41.4833 108.428 42.039 108.026 42.7671C107.624 43.4762 107.422 44.3289 107.422 45.3254C107.422 46.3027 107.624 47.1554 108.026 47.8836C108.428 48.6118 108.975 49.1675 109.664 49.5507C110.354 49.934 111.13 50.1256 111.993 50.1256ZM132.1 53.2012C130.855 53.2012 129.715 52.9138 128.68 52.3389C127.664 51.764 126.85 50.9017 126.237 49.7519C125.643 48.583 125.346 47.1075 125.346 45.3254C125.346 43.5241 125.633 42.0485 126.208 40.8988C126.802 39.749 127.607 38.8963 128.622 38.3406C129.638 37.7657 130.797 37.4783 132.1 37.4783C133.614 37.4783 134.946 37.804 136.096 38.4556C137.265 39.1071 138.185 40.0173 138.855 41.1862C139.545 42.3552 139.89 43.7349 139.89 45.3254C139.89 46.9159 139.545 48.3052 138.855 49.4932C138.185 50.6622 137.265 51.5724 136.096 52.2239C134.946 52.8754 133.614 53.2012 132.1 53.2012ZM123.592 58.5763V37.6507H127.013V41.2725L126.898 45.3541L127.185 49.4357V58.5763H123.592ZM131.698 50.1256C132.56 50.1256 133.327 49.934 133.998 49.5507C134.687 49.1675 135.234 48.6118 135.636 47.8836C136.038 47.1554 136.24 46.3027 136.24 45.3254C136.24 44.3289 136.038 43.4762 135.636 42.7671C135.234 42.039 134.687 41.4833 133.998 41.1C133.327 40.7167 132.56 40.5251 131.698 40.5251C130.836 40.5251 130.06 40.7167 129.37 41.1C128.68 41.4833 128.134 42.039 127.731 42.7671C127.329 43.4762 127.128 44.3289 127.128 45.3254C127.128 46.3027 127.329 47.1554 127.731 47.8836C128.134 48.6118 128.68 49.1675 129.37 49.5507C130.06 49.934 130.836 50.1256 131.698 50.1256ZM157.824 53.2874C156.252 53.2874 154.748 53.0671 153.311 52.6263C151.874 52.1664 150.734 51.582 149.89 50.8729L151.184 47.9698C151.989 48.6022 152.985 49.1291 154.173 49.5507C155.361 49.9723 156.578 50.1831 157.824 50.1831C158.878 50.1831 159.731 50.0681 160.382 49.8382C161.034 49.6082 161.513 49.3016 161.819 48.9184C162.126 48.5159 162.279 48.0656 162.279 47.5674C162.279 46.9542 162.059 46.4655 161.618 46.1014C161.177 45.7182 160.602 45.4212 159.893 45.2104C159.204 44.9804 158.427 44.7696 157.565 44.578C156.722 44.3864 155.869 44.166 155.007 43.9169C154.164 43.6486 153.388 43.3133 152.679 42.9109C151.989 42.4893 151.424 41.9336 150.983 41.2437C150.542 40.5539 150.322 39.6724 150.322 38.5993C150.322 37.507 150.609 36.5105 151.184 35.6099C151.778 34.6901 152.669 33.9619 153.857 33.4254C155.064 32.8696 156.588 32.5918 158.427 32.5918C159.635 32.5918 160.832 32.7451 162.02 33.0517C163.209 33.3583 164.243 33.799 165.125 34.3739L163.946 37.2771C163.046 36.7405 162.116 36.3477 161.158 36.0986C160.2 35.8303 159.28 35.6961 158.399 35.6961C157.364 35.6961 156.521 35.8207 155.869 36.0698C155.237 36.3189 154.767 36.6447 154.461 37.0471C154.173 37.4495 154.03 37.9094 154.03 38.4268C154.03 39.04 154.24 39.5382 154.662 39.9215C155.103 40.2856 155.668 40.573 156.358 40.7838C157.067 40.9946 157.853 41.2054 158.715 41.4162C159.577 41.6078 160.43 41.8282 161.273 42.0773C162.135 42.3264 162.912 42.6522 163.601 43.0546C164.31 43.457 164.876 44.0031 165.297 44.693C165.738 45.3828 165.958 46.2547 165.958 47.3087C165.958 48.3818 165.661 49.3783 165.067 50.2981C164.492 51.1987 163.601 51.9269 162.394 52.4826C161.187 53.0192 159.663 53.2874 157.824 53.2874ZM175.096 53.2012C173.41 53.2012 172.107 52.77 171.187 51.9077C170.267 51.0262 169.807 49.7328 169.807 48.0273V34.2589H173.4V47.9411C173.4 48.6692 173.582 49.2345 173.946 49.637C174.33 50.0394 174.857 50.2406 175.527 50.2406C176.332 50.2406 177.003 50.0298 177.539 49.6082L178.546 52.1664C178.124 52.5114 177.607 52.77 176.993 52.9425C176.38 53.115 175.748 53.2012 175.096 53.2012ZM167.278 40.6401V37.7657H177.511V40.6401H167.278ZM187.895 53.2012C186.323 53.2012 184.924 52.8659 183.698 52.1952C182.471 51.5053 181.504 50.5663 180.795 49.3783C180.086 48.1902 179.731 46.8392 179.731 45.3254C179.731 43.7924 180.086 42.4414 180.795 41.2725C181.504 40.0844 182.471 39.155 183.698 38.4843C184.924 37.8136 186.323 37.4783 187.895 37.4783C189.485 37.4783 190.893 37.8136 192.12 38.4843C193.365 39.155 194.333 40.0748 195.023 41.2437C195.732 42.4126 196.087 43.7732 196.087 45.3254C196.087 46.8392 195.732 48.1902 195.023 49.3783C194.333 50.5663 193.365 51.5053 192.12 52.1952C190.893 52.8659 189.485 53.2012 187.895 53.2012ZM187.895 50.1256C188.776 50.1256 189.562 49.934 190.252 49.5507C190.941 49.1675 191.478 48.6118 191.861 47.8836C192.264 47.1554 192.465 46.3027 192.465 45.3254C192.465 44.3289 192.264 43.4762 191.861 42.7671C191.478 42.039 190.941 41.4833 190.252 41.1C189.562 40.7167 188.786 40.5251 187.923 40.5251C187.042 40.5251 186.256 40.7167 185.566 41.1C184.896 41.4833 184.359 42.039 183.957 42.7671C183.554 43.4762 183.353 44.3289 183.353 45.3254C183.353 46.3027 183.554 47.1554 183.957 47.8836C184.359 48.6118 184.896 49.1675 185.566 49.5507C186.256 49.934 187.032 50.1256 187.895 50.1256ZM199.522 53V37.6507H202.943V41.8761L202.54 40.6401C203 39.6053 203.719 38.8196 204.696 38.2831C205.693 37.7465 206.929 37.4783 208.404 37.4783V40.8988C208.251 40.8605 208.107 40.8413 207.973 40.8413C207.839 40.8221 207.705 40.8126 207.571 40.8126C206.21 40.8126 205.127 41.215 204.323 42.0198C203.518 42.8055 203.115 43.984 203.115 45.5553V53H199.522ZM218.527 53.2012C216.821 53.2012 215.326 52.8659 214.043 52.1952C212.778 51.5053 211.791 50.5663 211.082 49.3783C210.392 48.1902 210.047 46.8392 210.047 45.3254C210.047 43.7924 210.382 42.4414 211.053 41.2725C211.743 40.0844 212.682 39.155 213.87 38.4843C215.077 37.8136 216.447 37.4783 217.98 37.4783C219.475 37.4783 220.807 37.804 221.976 38.4556C223.145 39.1071 224.065 40.0269 224.735 41.215C225.406 42.4031 225.741 43.8019 225.741 45.4116C225.741 45.5649 225.732 45.7374 225.713 45.929C225.713 46.1206 225.703 46.3027 225.684 46.4751H212.893V44.0894H223.787L222.378 44.8367C222.397 43.9552 222.215 43.1791 221.832 42.5085C221.449 41.8378 220.922 41.3108 220.251 40.9275C219.6 40.5443 218.843 40.3527 217.98 40.3527C217.099 40.3527 216.323 40.5443 215.652 40.9275C215.001 41.3108 214.483 41.8473 214.1 42.5372C213.736 43.2079 213.554 44.0031 213.554 44.9229V45.4978C213.554 46.4176 213.765 47.232 214.186 47.9411C214.608 48.6501 215.202 49.1962 215.968 49.5795C216.735 49.9627 217.616 50.1543 218.613 50.1543C219.475 50.1543 220.251 50.0202 220.941 49.7519C221.631 49.4837 222.244 49.0621 222.781 48.4872L224.707 50.7005C224.017 51.5053 223.145 52.1281 222.091 52.5688C221.056 52.9904 219.868 53.2012 218.527 53.2012Z" fill="white"/>
</svg>
