<svg width="64" height="64" viewBox="0 0 64 64" fill="none" xmlns="http://www.w3.org/2000/svg">
<g id="Icon Arrow">
<path id="Vector" d="M33.8933 16.7732L47.2267 30.1065C47.4694 30.3601 47.6597 30.6592 47.7867 30.9865C48.0534 31.6357 48.0534 32.3639 47.7867 33.0132C47.6597 33.3405 47.4694 33.6396 47.2267 33.8932L33.8933 47.2265C33.6447 47.4751 33.3495 47.6724 33.0247 47.8069C32.6998 47.9415 32.3516 48.0107 32 48.0107C31.2899 48.0107 30.6088 47.7286 30.1067 47.2265C29.6045 46.7244 29.3224 46.0433 29.3224 45.3332C29.3224 44.623 29.6045 43.942 30.1067 43.4398L38.9067 34.6665H18.6667C17.9594 34.6665 17.2811 34.3855 16.781 33.8854C16.2809 33.3854 16 32.7071 16 31.9998C16 31.2926 16.2809 30.6143 16.781 30.1142C17.2811 29.6141 17.9594 29.3332 18.6667 29.3332H38.9067L30.1067 20.5598C29.8567 20.3119 29.6583 20.017 29.5229 19.692C29.3876 19.3671 29.3179 19.0185 29.3179 18.6665C29.3179 18.3145 29.3876 17.9659 29.5229 17.641C29.6583 17.316 29.8567 17.0211 30.1067 16.7732C30.3546 16.5232 30.6495 16.3248 30.9745 16.1895C31.2994 16.0541 31.648 15.9844 32 15.9844C32.352 15.9844 32.7006 16.0541 33.0255 16.1895C33.3505 16.3248 33.6454 16.5232 33.8933 16.7732Z" fill="#232323"/>
</g>
</svg>
