<svg width="48" height="48" viewBox="0 0 48 48" fill="none" xmlns="http://www.w3.org/2000/svg">
<path d="M21.3073 11.1384C22.0241 10.9239 22.7933 10.9596 23.4869 11.2393C24.1804 11.5191 24.7565 12.0261 25.1192 12.676L25.2404 12.9182L26.3249 15.3092C26.654 16.0349 26.7608 16.8407 26.6321 17.6261C26.5033 18.4116 26.1447 19.1422 25.6008 19.7271L25.3829 19.9417L23.6744 21.5232C23.3664 21.8125 23.5974 22.9324 24.7113 24.8472C25.7138 26.5701 26.5296 27.3747 26.931 27.4186H27.0014L27.0882 27.4023L30.4464 26.3832C30.8977 26.2459 31.3793 26.2404 31.8337 26.3675C32.288 26.4947 32.6958 26.749 33.0084 27.1L33.1574 27.2869L35.3804 30.3427C35.816 30.9417 36.0331 31.67 35.9959 32.4077C35.9587 33.1454 35.6694 33.8486 35.1756 34.4014L34.9758 34.6062L34.0879 35.4417C33.2906 36.1908 32.2933 36.6971 31.2145 36.9002C30.1357 37.1034 29.0207 36.9949 28.0023 36.5876C24.8325 35.3197 21.9527 32.4233 19.3366 27.9273C16.7156 23.4201 15.6263 19.4914 16.1128 16.1268C16.26 15.1097 16.6821 14.1512 17.3343 13.353C17.9864 12.5548 18.8442 11.9468 19.8166 11.5935L20.1328 11.4895L21.3073 11.1384Z" fill="#232323"/>
<circle cx="24" cy="24" r="23" stroke="#232323" stroke-width="2"/>
</svg>
