<svg width="25" height="24" viewBox="0 0 25 24" fill="none" xmlns="http://www.w3.org/2000/svg">
<g id="ic:round-plus" clip-path="url(#clip0_364_9221)">
<path id="Vector" d="M17.234 18.3467L12.6992 13.8119L8.16448 18.3467C7.92395 18.5872 7.59771 18.7223 7.25753 18.7223C6.91736 18.7223 6.59113 18.5872 6.35059 18.3467C6.11005 18.1061 5.97492 17.7799 5.97492 17.4397C5.97492 17.0996 6.11005 16.7733 6.35059 16.5328L10.8853 11.998L6.35059 7.46331C6.11005 7.22277 5.97492 6.89653 5.97492 6.55636C5.97492 6.21619 6.11005 5.88995 6.35059 5.64941C6.59112 5.40888 6.91736 5.27374 7.25753 5.27374C7.59771 5.27374 7.92394 5.40888 8.16448 5.64941L12.6992 10.1842L17.234 5.64941C17.4745 5.40888 17.8007 5.27374 18.1409 5.27374C18.4811 5.27374 18.8073 5.40888 19.0479 5.64941C19.2884 5.88995 19.4235 6.21619 19.4235 6.55636C19.4235 6.89653 19.2884 7.22277 19.0479 7.46331L14.5131 11.998L19.0479 16.5328C19.2884 16.7733 19.4235 17.0996 19.4235 17.4397C19.4235 17.7799 19.2884 18.1061 19.0479 18.3467C18.8073 18.5872 18.4811 18.7223 18.1409 18.7223C17.8007 18.7223 17.4745 18.5872 17.234 18.3467Z" fill="#2C201D"/>
</g>
<defs>
<clipPath id="clip0_364_9221">
<rect width="23.9997" height="23.9997" fill="white" transform="translate(0.699219)"/>
</clipPath>
</defs>
</svg>
