<svg width="72" height="45" viewBox="0 0 72 45" fill="none" xmlns="http://www.w3.org/2000/svg">
<g id="Logo">
<g id="Natali">
<path d="M17.13 23.749C16.6921 23.749 16.2917 23.6239 15.9289 23.3737C15.5661 23.1234 15.2783 22.7982 15.0656 22.3978C14.8529 21.9974 14.7466 21.5658 14.7466 21.1029C14.7466 20.8902 14.7653 20.7401 14.8029 20.6525C14.8529 20.5524 14.928 20.4836 15.0281 20.446L18.7815 19.0573C19.0317 18.9697 19.2006 18.8696 19.2882 18.757C19.3757 18.6319 19.4195 18.463 19.4195 18.2503V17.6873C19.4195 17.1368 19.2882 16.6864 19.0254 16.3361C18.7627 15.9858 18.3561 15.8106 17.8056 15.8106C17.4427 15.8106 17.1487 15.892 16.9235 16.0546C16.6983 16.2047 16.5857 16.3924 16.5857 16.6176C16.5857 16.7052 16.6045 16.7865 16.642 16.8616C16.6921 16.9366 16.7484 17.0117 16.8109 17.0868C16.8985 17.1994 16.9673 17.3182 17.0174 17.4433C17.0799 17.5685 17.1112 17.6998 17.1112 17.8374C17.1112 18.1127 17.0111 18.3316 16.8109 18.4943C16.6233 18.6569 16.3793 18.7383 16.079 18.7383C15.7662 18.7383 15.5223 18.6507 15.3471 18.4755C15.172 18.2879 15.0844 18.0314 15.0844 17.7061C15.0844 17.2557 15.2408 16.8491 15.5536 16.4862C15.8663 16.1109 16.2667 15.8169 16.7546 15.6042C17.2426 15.379 17.743 15.2664 18.256 15.2664C18.844 15.2664 19.357 15.3727 19.7949 15.5854C20.2453 15.7856 20.5956 16.0796 20.8458 16.4675C21.1085 16.8428 21.2399 17.3057 21.2399 17.8562V21.8723C21.2399 22.1225 21.2649 22.3352 21.315 22.5104C21.3775 22.6855 21.5214 22.7731 21.7466 22.7731C21.9718 22.7731 22.2471 22.7168 22.5724 22.6042V22.9983C22.3346 23.1485 22.0219 23.3111 21.634 23.4863C21.2587 23.6489 20.9271 23.7302 20.6394 23.7302C20.3766 23.7302 20.1639 23.6739 20.0013 23.5613C19.8386 23.4487 19.7198 23.2736 19.6447 23.0359C19.5697 22.7982 19.5321 22.5166 19.5321 22.1914V21.9286L19.9075 22.2852C19.6447 22.5104 19.357 22.7356 19.0442 22.9608C18.7314 23.186 18.4124 23.3737 18.0871 23.5238C17.7618 23.6739 17.4428 23.749 17.13 23.749ZM17.9745 22.7168C18.1747 22.7168 18.3686 22.673 18.5562 22.5855C18.7564 22.4979 18.9629 22.379 19.1756 22.2289C19.3382 22.1038 19.4195 21.9036 19.4195 21.6284V19.5828C19.4195 19.5452 19.407 19.5202 19.382 19.5077C19.357 19.4827 19.3257 19.4827 19.2882 19.5077L16.7734 20.4273C16.6983 20.4523 16.642 20.5086 16.6045 20.5962C16.5795 20.6838 16.567 20.8276 16.567 21.0278C16.567 21.3031 16.6358 21.5721 16.7734 21.8348C16.911 22.085 17.0862 22.2977 17.2989 22.4729C17.5241 22.6355 17.7493 22.7168 17.9745 22.7168Z" fill="white"/>
<path d="M26.0029 23.7678C24.8393 23.7678 24.2576 23.0359 24.2576 21.5721V16.0171H23.0189V15.5667C23.8322 15.429 24.439 15.1413 24.8393 14.7034C25.2397 14.2655 25.4962 13.6399 25.6088 12.8267H26.0779V15.4353H28.3863L28.1986 16.0171H26.0779V21.4219C26.0779 21.8973 26.153 22.2226 26.3031 22.3978C26.4533 22.5729 26.6597 22.6605 26.9224 22.6605C27.1101 22.6605 27.3228 22.6167 27.5605 22.5292C27.7982 22.4416 28.0422 22.329 28.2924 22.1914L28.5364 22.6042C28.061 22.9796 27.5981 23.2673 27.1476 23.4675C26.7098 23.6677 26.3282 23.7678 26.0029 23.7678Z" fill="white"/>
<path d="M32.0115 23.749C31.5736 23.749 31.1732 23.6239 30.8104 23.3737C30.4476 23.1234 30.1598 22.7982 29.9471 22.3978C29.7344 21.9974 29.6281 21.5658 29.6281 21.1029C29.6281 20.8902 29.6469 20.7401 29.6844 20.6525C29.7344 20.5524 29.8095 20.4836 29.9096 20.446L33.663 19.0573C33.9132 18.9697 34.0821 18.8696 34.1697 18.757C34.2572 18.6319 34.301 18.463 34.301 18.2503V17.6873C34.301 17.1368 34.1697 16.6864 33.9069 16.3361C33.6442 15.9858 33.2376 15.8106 32.6871 15.8106C32.3243 15.8106 32.0303 15.892 31.805 16.0546C31.5798 16.2047 31.4672 16.3924 31.4672 16.6176C31.4672 16.7052 31.486 16.7865 31.5235 16.8616C31.5736 16.9366 31.6299 17.0117 31.6924 17.0868C31.78 17.1994 31.8488 17.3182 31.8989 17.4433C31.9614 17.5685 31.9927 17.6998 31.9927 17.8374C31.9927 18.1127 31.8926 18.3316 31.6924 18.4943C31.5048 18.6569 31.2608 18.7383 30.9605 18.7383C30.6478 18.7383 30.4038 18.6507 30.2286 18.4755C30.0535 18.2879 29.9659 18.0314 29.9659 17.7061C29.9659 17.2557 30.1223 16.8491 30.4351 16.4862C30.7479 16.1109 31.1482 15.8169 31.6361 15.6042C32.1241 15.379 32.6245 15.2664 33.1375 15.2664C33.7255 15.2664 34.2385 15.3727 34.6764 15.5854C35.1268 15.7856 35.4771 16.0796 35.7273 16.4675C35.9901 16.8428 36.1214 17.3057 36.1214 17.8562V21.8723C36.1214 22.1225 36.1464 22.3352 36.1965 22.5104C36.259 22.6855 36.4029 22.7731 36.6281 22.7731C36.8533 22.7731 37.1286 22.7168 37.4539 22.6042V22.9983C37.2162 23.1485 36.9034 23.3111 36.5155 23.4863C36.1402 23.6489 35.8086 23.7302 35.5209 23.7302C35.2581 23.7302 35.0455 23.6739 34.8828 23.5613C34.7202 23.4487 34.6013 23.2736 34.5262 23.0359C34.4512 22.7982 34.4136 22.5166 34.4136 22.1914V21.9286L34.789 22.2852C34.5262 22.5104 34.2385 22.7356 33.9257 22.9608C33.6129 23.186 33.2939 23.3737 32.9686 23.5238C32.6433 23.6739 32.3243 23.749 32.0115 23.749ZM32.856 22.7168C33.0562 22.7168 33.2501 22.673 33.4378 22.5855C33.6379 22.4979 33.8444 22.379 34.0571 22.2289C34.2197 22.1038 34.301 21.9036 34.301 21.6284V19.5828C34.301 19.5452 34.2885 19.5202 34.2635 19.5077C34.2385 19.4827 34.2072 19.4827 34.1697 19.5077L31.6549 20.4273C31.5798 20.4523 31.5235 20.5086 31.486 20.5962C31.461 20.6838 31.4485 20.8276 31.4485 21.0278C31.4485 21.3031 31.5173 21.5721 31.6549 21.8348C31.7925 22.085 31.9677 22.2977 32.1804 22.4729C32.4056 22.6355 32.6308 22.7168 32.856 22.7168Z" fill="white"/>
<path d="M38.2714 23.6176V23.3174L38.947 23.0922C39.1222 23.0421 39.2473 22.9608 39.3223 22.8482C39.4099 22.7231 39.4537 22.5729 39.4537 22.3978V12.2262C39.4537 11.9634 39.4162 11.7883 39.3411 11.7007C39.266 11.6006 39.1472 11.5318 38.9845 11.4943L38.2714 11.3066V11.0439C38.8844 10.9438 39.4287 10.8437 39.9041 10.7436C40.3795 10.6435 40.8612 10.4871 41.3492 10.2744L41.5368 10.4058C41.4367 10.606 41.3679 10.8499 41.3304 11.1377C41.2929 11.4254 41.2741 11.757 41.2741 12.1323V22.4916C41.2741 22.6668 41.3179 22.8044 41.4055 22.9045C41.5055 22.9921 41.6244 23.0546 41.762 23.0922L42.4376 23.3174V23.6176H38.2714Z" fill="white"/>
<path d="M45.5223 13.2583C45.172 13.2583 44.8717 13.1395 44.6215 12.9018C44.3838 12.6515 44.2649 12.3513 44.2649 12.001C44.2649 11.6506 45.0237 11.9384 45.2614 11.7007C45.5117 11.4505 45.172 10.7436 45.5223 10.7436C45.8726 10.7436 46.1666 10.8687 46.4043 11.1189C46.6546 11.3566 46.7797 11.6506 46.7797 12.001C46.7797 12.3513 46.6546 12.6515 46.4043 12.9018C46.1666 13.1395 45.8726 13.2583 45.5223 13.2583Z" fill="white"/>
</g>
<g id="Glishko">
<path d="M12.444 37.719C11.5182 37.719 10.6361 37.5689 9.79788 37.2686C8.97214 36.9684 8.23398 36.5367 7.5834 35.9737C6.94532 35.3982 6.43862 34.7101 6.06328 33.9094C5.70046 33.1087 5.51904 32.2078 5.51904 31.2069C5.51904 30.2561 5.70046 29.3866 6.06328 28.5984C6.43862 27.8102 6.93907 27.122 7.56463 26.534C8.2027 25.946 8.94086 25.4956 9.77912 25.1828C10.6174 24.87 11.4994 24.7136 12.4252 24.7136C13.0633 24.7136 13.595 24.7574 14.0204 24.845C14.4583 24.9201 14.8274 25.0201 15.1277 25.1453C15.4404 25.2579 15.7219 25.358 15.9722 25.4455C16.2224 25.5331 16.4914 25.5769 16.7791 25.5769C16.9168 25.5769 17.0419 25.5644 17.1545 25.5394C17.2671 25.5143 17.3672 25.4956 17.4548 25.4831L17.5111 25.5206C17.486 25.6332 17.461 25.7708 17.436 25.9335C17.411 26.0836 17.3985 26.2275 17.3985 26.3651C17.3985 26.7154 17.4235 27.0657 17.4735 27.416C17.5236 27.7664 17.5736 28.0666 17.6237 28.3169C17.6737 28.5546 17.7112 28.6922 17.7363 28.7297H17.192C16.9543 28.0791 16.6102 27.4974 16.1598 26.9844C15.7094 26.4589 15.1777 26.0461 14.5647 25.7458C13.9516 25.433 13.2635 25.2766 12.5003 25.2766C11.8122 25.2766 11.1929 25.433 10.6424 25.7458C10.0919 26.0586 9.61647 26.4902 9.21611 27.0407C8.82826 27.5912 8.52174 28.223 8.29654 28.9362C8.08384 29.6493 7.9775 30.4 7.9775 31.1882C7.9775 31.9389 8.06508 32.6708 8.24023 33.3839C8.41539 34.097 8.68438 34.7414 9.04721 35.3169C9.41003 35.8799 9.88546 36.3303 10.4735 36.6681C11.074 36.9934 11.7872 37.156 12.6129 37.156C13.0258 37.156 13.4887 37.0872 14.0017 36.9496C14.5146 36.812 14.9775 36.5555 15.3904 36.1802V33.459C15.3904 33.0586 15.3278 32.7959 15.2027 32.6708C15.0776 32.5457 14.7773 32.4393 14.3019 32.3517L13.2697 32.1453V31.77H19.5379V32.1453L18.7684 32.2954C18.3055 32.383 18.0052 32.4956 17.8676 32.6332C17.7425 32.7583 17.68 33.0211 17.68 33.4214V36.9871L17.6049 37.0247C17.4798 36.9996 17.3609 36.9809 17.2483 36.9684C17.1357 36.9433 16.9856 36.9308 16.7979 36.9308C16.5852 36.9308 16.3413 36.9684 16.066 37.0434C15.7908 37.106 15.4967 37.1873 15.184 37.2874C14.8086 37.3875 14.3958 37.4813 13.9454 37.5689C13.4949 37.669 12.9945 37.719 12.444 37.719Z" fill="white"/>
<path d="M20.3412 37.5126V37.2123L21.0168 36.9871C21.1919 36.9371 21.3171 36.8558 21.3921 36.7432C21.4797 36.6181 21.5235 36.4679 21.5235 36.2928V26.0107C21.5235 25.748 21.486 25.5729 21.4109 25.4853C21.3358 25.3852 21.217 25.3164 21.0543 25.2788L20.3412 25.0912V24.8284C20.9542 24.7283 21.5096 24.6075 21.9676 24.4454C22.5133 24.2522 23.0716 23.783 23.4002 23.4518L23.6066 23.6384C23.5065 23.8386 23.4377 24.4137 23.4002 24.7015C23.3626 24.9892 23.3439 25.3208 23.3439 25.6961V36.3866C23.3439 36.5618 23.3877 36.6994 23.4752 36.7995C23.5753 36.887 23.6942 36.9496 23.8318 36.9871L24.5074 37.2123V37.5126H20.3412Z" fill="white"/>
<path d="M48.8605 37.5126V37.2123L49.5361 36.9871C49.7237 36.9371 49.8551 36.8558 49.9302 36.7432C50.0052 36.6181 50.0428 36.4679 50.0428 36.2928V32.2579C50.0428 31.6949 49.8926 31.2633 49.5924 30.963C49.2921 30.6502 48.8542 30.4938 48.2787 30.4938C47.7157 30.4938 47.2653 30.6752 46.9275 31.038C46.6022 31.4009 46.4395 31.845 46.4395 32.3705L46.0642 30.4563H46.4208C46.7586 30.2936 47.1277 30.106 47.528 29.8933C47.9284 29.6806 48.31 29.4741 48.6728 29.274C48.7354 29.2489 48.7979 29.2302 48.8605 29.2177C48.9355 29.1926 49.0043 29.1801 49.0669 29.1801C49.9552 29.1801 50.6433 29.4053 51.1313 29.8557C51.6192 30.2936 51.8632 30.938 51.8632 31.7887V36.3866C51.8632 36.5618 51.9132 36.6994 52.0133 36.7995C52.1134 36.887 52.2322 36.9496 52.3699 36.9871L53.0455 37.2123V37.5126H48.8605ZM43.4368 37.5126V37.2123L44.1125 36.9871C44.2876 36.9371 44.4127 36.8558 44.4878 36.7432C44.5754 36.6181 44.6192 36.4679 44.6192 36.2928V17.1793C44.6192 16.9166 44.5816 16.7414 44.5066 16.6538C44.4315 16.5537 44.3126 16.4849 44.15 16.4474L43.4368 16.2597V15.997C44.0499 15.8969 44.5941 15.7968 45.0696 15.6967C45.545 15.5966 46.0267 15.4402 46.5146 15.2275L46.7023 15.3589C46.6022 15.5591 46.5334 15.8031 46.4958 16.0908C46.4583 16.3786 46.4395 16.7101 46.4395 17.0855V36.3866C46.4395 36.5618 46.4833 36.6994 46.5709 36.7995C46.671 36.887 46.7899 36.9496 46.9275 36.9871L47.6031 37.2123V37.5126H43.4368Z" fill="white"/>
<path d="M53.8837 37.5126V37.2123L54.5593 36.9871C54.7344 36.9371 54.8596 36.8558 54.9346 36.7432C55.0097 36.6181 55.0472 36.4679 55.0472 36.2928V26.1211C55.0472 25.8584 55.0097 25.6832 54.9346 25.5957C54.8596 25.4956 54.7407 25.4268 54.578 25.3892L53.8649 25.2016V24.9388C54.478 24.8387 55.0222 24.7386 55.4976 24.6386C55.9135 24.551 56.4655 24.1694 56.9427 23.8382L57.1303 23.9696C57.0302 24.1698 56.9614 24.7449 56.9239 25.0327C56.8864 25.3204 56.8676 25.652 56.8676 26.0273V36.3866C56.8676 36.5618 56.9176 36.6994 57.0177 36.7995C57.1178 36.887 57.2367 36.9496 57.3743 36.9871L58.0499 37.2123V37.5126H53.8837ZM59.0258 37.5126V37.2123L59.5513 37.0997C59.7389 37.0372 59.8578 36.9496 59.9078 36.837C59.9704 36.7119 59.9454 36.5618 59.8328 36.3866L57.7121 33.1775L59.0821 32.0327L62.0097 36.4054C62.1348 36.593 62.2662 36.7432 62.4038 36.8558C62.554 36.9559 62.7354 37.0309 62.9481 37.081L63.436 37.1936V37.5126H59.0258ZM56.6987 34.8289L56.5673 34.0783L60.3207 30.2874C60.4208 30.1998 60.4521 30.106 60.4145 30.0059C60.3895 29.9058 60.3082 29.8432 60.1706 29.8182L59.3073 29.6493V29.3303H62.8918V29.6493L62.0285 29.837C61.8658 29.887 61.7407 29.9371 61.6531 29.9871C61.5656 30.0246 61.4717 30.0935 61.3716 30.1935L56.6987 34.8289Z" fill="white"/>
<path d="M67.7619 37.6627C66.9487 37.6627 66.2293 37.4813 65.6037 37.1185C64.9782 36.7432 64.4965 36.2427 64.1587 35.6172C63.8209 34.9791 63.652 34.2722 63.652 33.4965C63.652 32.6457 63.8209 31.8951 64.1587 31.2445C64.4965 30.5939 64.9782 30.0872 65.6037 29.7244C66.2293 29.3615 66.9487 29.1801 67.7619 29.1801C68.5876 29.1801 69.307 29.3615 69.9201 29.7244C70.5331 30.0872 71.0086 30.5814 71.3464 31.2069C71.6967 31.8325 71.8718 32.5457 71.8718 33.3464C71.8718 34.1846 71.6967 34.929 71.3464 35.5796C71.0086 36.2302 70.5331 36.7432 69.9201 37.1185C69.307 37.4813 68.5876 37.6627 67.7619 37.6627ZM67.7807 37.1185C68.4438 37.1185 68.9567 36.8245 69.3195 36.2365C69.6824 35.6359 69.8638 34.7414 69.8638 33.5528C69.8638 32.3142 69.6824 31.3696 69.3195 30.719C68.9567 30.0559 68.4313 29.7244 67.7431 29.7244C67.08 29.7244 66.5671 30.0184 66.2042 30.6064C65.8414 31.1944 65.66 32.089 65.66 33.2901C65.66 34.5162 65.8414 35.4608 66.2042 36.1239C66.5671 36.787 67.0925 37.1185 67.7807 37.1185Z" fill="white"/>
</g>
<path id="Natali_2" d="M12.3298 23.7616L2.83379 13.1208V35.7172C2.83379 36.055 2.90886 36.3052 3.05899 36.4679C3.22164 36.6305 3.5094 36.7494 3.92227 36.8244L5.19841 37.0872V37.4625H0V37.0872L1.12601 36.8432C1.52637 36.7681 1.80787 36.6555 1.97052 36.5054C2.13316 36.3553 2.21449 36.0988 2.21449 35.736V12.5578C2.21449 12.2826 2.18946 12.0761 2.13942 11.9385C2.08937 11.7884 1.97677 11.6758 1.80162 11.6007C1.63897 11.5256 1.37623 11.4506 1.01341 11.3755L0.0750674 11.1878V10.8125H3.75337L11.9732 19.6991V12.5578C11.9732 12.2075 11.8919 11.9573 11.7293 11.8071C11.5666 11.6445 11.2851 11.5256 10.8848 11.4506L9.58985 11.1878V10.8125H14.7883V11.1878L13.681 11.4318C13.2682 11.5069 12.9804 11.6195 12.8178 11.7696C12.6676 11.9197 12.5925 12.1762 12.5925 12.539V23.7616H12.3298Z" fill="white"/>
<path id="Rectangle 13" d="M62.1734 12.3943L58.5649 7.52854C56.3652 4.56247 52.2544 3.85062 49.1988 5.83312L52.8073 10.6989C55.0069 13.665 59.1178 14.3768 62.1734 12.3943Z" fill="#232323" stroke="white" stroke-width="0.883145"/>
<path id="Rectangle 11" d="M57.736 19.194V13.1362C57.736 9.44352 60.6139 6.42301 64.2492 6.19524V12.2531C64.2492 15.9458 61.3713 18.9663 57.736 19.194Z" fill="#232323" stroke="white" stroke-width="0.883145"/>
<path id="Rectangle 16" d="M54.3132 24.9241V21.5269C54.3132 19.5423 55.8094 17.9072 57.7353 17.6881V21.0853C57.7353 23.0699 56.2391 24.705 54.3132 24.9241Z" fill="#232323" stroke="white" stroke-width="0.883145"/>
<path id="Rectangle 12" d="M60.6058 13.4538V7.39598C60.6058 3.70329 57.7279 0.682775 54.0926 0.455007V6.51284C54.0926 10.2055 56.9705 13.226 60.6058 13.4538Z" fill="#232323" stroke="white" stroke-width="0.883145"/>
<path id="Rectangle 14" d="M59.2811 13.2298V8.61039C59.2811 5.6496 56.9956 3.22262 54.0926 2.9974V7.61685C54.0926 10.5776 56.3781 13.0046 59.2811 13.2298Z" fill="#232323" stroke="white" stroke-width="0.883145"/>
<path id="Rectangle 15" d="M57.846 12.7825V10.2665C57.846 8.09879 56.2019 6.31513 54.0927 6.09448V8.61056C54.0927 10.7782 55.7368 12.5619 57.846 12.7825Z" fill="#232323" stroke="white" stroke-width="0.883145"/>
<path id="y" d="M27.0244 44.6148C26.5976 44.6148 26.2517 44.4823 25.9867 44.2174C25.7365 43.9524 25.6114 43.6507 25.6114 43.3121C25.6114 42.9294 25.7292 42.6056 25.9647 42.3407C26.2002 42.0905 26.4946 41.9653 26.8478 41.9653C27.0539 41.9653 27.2232 42.0021 27.3556 42.0757C27.5028 42.1493 27.6279 42.2303 27.731 42.3186C27.8193 42.4069 27.9002 42.4658 27.9738 42.4952C28.0474 42.5394 28.121 42.5615 28.1946 42.5615C28.4301 42.5615 28.6288 42.3701 28.7907 41.9874L30.27 38.499L26.7595 30.2637C26.6859 30.1165 26.5976 30.0134 26.4946 29.9546C26.4062 29.881 26.2664 29.8221 26.0751 29.7779L25.3906 29.6234V29.248H30.5349V29.6234L29.7622 29.8C29.5414 29.8442 29.3721 29.9325 29.2544 30.065C29.1514 30.1827 29.1366 30.352 29.2102 30.5728L31.7051 36.6444H31.1311L33.7363 30.3961C33.8099 30.2489 33.8247 30.1312 33.7805 30.0429C33.7363 29.9546 33.5892 29.881 33.3389 29.8221L32.3454 29.6234V29.248H36.1429V29.6234L35.326 29.8442C35.1347 29.903 34.9948 29.9693 34.9065 30.0429C34.8182 30.1018 34.7372 30.2048 34.6637 30.352L29.5635 42.3407C29.3427 42.8558 29.0998 43.2753 28.8349 43.5992C28.5847 43.9377 28.305 44.1879 27.9959 44.3498C27.7015 44.5265 27.3777 44.6148 27.0244 44.6148Z" fill="white"/>
<path id="Glishko_2" d="M39.6701 37.7494C39.0821 37.7494 38.5316 37.6618 38.0186 37.4867C37.5056 37.299 37.1178 37.1301 36.8551 36.98C36.8801 36.6172 36.8926 36.2231 36.8926 35.7977C36.8926 35.3723 36.8488 34.9657 36.7612 34.5778H37.3993C37.4744 35.0783 37.612 35.5287 37.8122 35.929C38.0249 36.3294 38.3001 36.6484 38.6379 36.8861C38.9757 37.1114 39.3761 37.224 39.839 37.224C40.2018 37.224 40.5083 37.1114 40.7586 36.8861C41.0213 36.6484 41.1527 36.3419 41.1527 35.9666C41.1527 35.6538 41.0964 35.3973 40.9838 35.1971C40.8712 34.997 40.6647 34.8093 40.3645 34.6341C40.0767 34.459 39.6576 34.2713 39.1071 34.0711C38.3939 33.7834 37.8622 33.4518 37.5119 33.0765C37.1741 32.7011 37.0052 32.1882 37.0052 31.5376C37.0052 31.1372 37.1241 30.7682 37.3618 30.4304C37.5995 30.08 37.9373 29.7985 38.3752 29.5858C38.8131 29.3606 39.3198 29.248 39.8953 29.248C40.2831 29.248 40.6022 29.2856 40.8524 29.3606C41.1026 29.4357 41.3654 29.5358 41.6406 29.6609H42.091C42.066 30.1113 42.0597 30.4992 42.0722 30.8245C42.0973 31.1498 42.1473 31.5188 42.2224 31.9317H41.7157C41.553 31.2311 41.3028 30.6993 40.965 30.3365C40.6397 29.9612 40.2268 29.7735 39.7264 29.7735C39.3511 29.7735 39.0508 29.8799 38.8256 30.0926C38.6004 30.3052 38.4878 30.5742 38.4878 30.8995C38.4878 31.1998 38.5441 31.45 38.6567 31.6502C38.7693 31.8379 38.9632 32.0068 39.2385 32.1569C39.5137 32.2945 39.9015 32.4509 40.402 32.6261C41.1402 32.8888 41.6969 33.2078 42.0722 33.5832C42.4601 33.9585 42.654 34.5028 42.654 35.2159C42.654 35.6413 42.5414 36.0479 42.3162 36.4357C42.1035 36.8236 41.7782 37.1426 41.3403 37.3929C40.9024 37.6306 40.3457 37.7494 39.6701 37.7494Z" fill="white"/>
<circle id="Ellipse 32" cx="62.2735" cy="8.30326" r="0.691929" fill="white"/>
</g>
</svg>
