<svg width="124" height="124" viewBox="0 0 124 124" fill="none" xmlns="http://www.w3.org/2000/svg">
<g clip-path="url(#clip0_345_227)">
<g clip-path="url(#clip1_345_227)">
<path d="M82.2317 4.88459C90.5845 -1.04035 102.522 -0.556073 110.245 6.03315C118.103 12.7338 119.176 23.6858 112.714 31.5265C106.624 38.9128 95.6459 41.3471 86.5045 37.5371L86.0074 37.3207L76.6325 39.3157L76.4718 39.3435L76.2361 39.3628L75.9939 39.3543L75.8996 39.3435L75.6639 39.3007L75.4389 39.2278L75.2246 39.1335L75.0618 39.0435L74.8304 38.8786L74.6568 38.72L74.5004 38.5421L74.3868 38.3814L74.2475 38.135L74.1575 37.9078L74.0911 37.6657L74.0632 37.505L74.0439 37.2693L74.0525 37.0271L74.0632 36.9329L74.1061 36.6971L74.1532 36.5429L76.6175 29.1479L76.5703 29.0708C71.8347 21.0416 73.9797 11.0881 81.7367 5.24673L82.2296 4.88673L82.2317 4.88459Z" fill="#63D1D1"/>
<rect x="85.0005" y="11" width="32" height="3" rx="1.5" fill="#232323"/>
<rect x="85.0005" y="18" width="22" height="4" rx="2" fill="#232323"/>
<rect x="85.0005" y="26" width="26" height="3" rx="1.5" fill="#232323"/>
</g>
<ellipse cx="70.5" cy="45" rx="3.5" ry="3" fill="#63D1D1"/>
<circle cx="63" cy="55" r="2" fill="#63D1D1"/>
<path fill-rule="evenodd" clip-rule="evenodd" d="M15.9002 63.3259C20.7661 62.9648 24.6017 58.9026 24.6017 53.9444C24.6017 53.7337 24.5947 53.5246 24.5811 53.3174H77.3809C82.3018 53.3174 86.0648 57.1222 86.0648 62.0978V97.2194C86.0648 102.195 82.3018 106 77.3809 106H19.4881C14.5672 106 10.8042 102.195 10.8042 97.2194V62.2671C12.0839 62.9435 13.5385 63.3334 15.0825 63.3514L35.4086 79.3659L17.1724 98.3901L39.4611 82L48.4345 87.8536L57.1184 82L79.6966 98.3901L61.4604 79.6586L83.4596 62.0978L48.4345 81.122L15.9002 63.3259Z" fill="#232323"/>
<circle cx="15" cy="54" r="8" fill="#63D1D1"/>
<path d="M16.7066 49C16.8687 49 17 49.1313 17 49.2934V58.6372C17 59.3899 16.3899 60 15.6372 60C14.8846 60 14.2744 59.3899 14.2744 58.6372V51.5031L12.0447 52.0678C11.5147 52.2021 11 51.8015 11 51.2547C11 50.8797 11.2489 50.5503 11.6096 50.4478L16.7066 49Z" fill="#232323"/>
<ellipse cx="48" cy="121.5" rx="33" ry="2.5" fill="#F6F6F6"/>
</g>
<defs>
<clipPath id="clip0_345_227">
<rect width="124" height="124" fill="white"/>
</clipPath>
<clipPath id="clip1_345_227">
<rect width="57.7727" height="57.7727" fill="white" transform="translate(70.4546 -5.63672)"/>
</clipPath>
</defs>
</svg>
