<svg width="260" height="70" viewBox="0 0 260 70" fill="none" xmlns="http://www.w3.org/2000/svg">
<rect width="260" height="70" rx="16.4251" fill="#232323"/>
<path d="M46.5706 34.5117L28 51.0971C28.2063 51.7518 28.7759 53.0075 29.2827 53.5143C29.7896 54.021 30.4191 54.4173 31.1232 54.6728C31.8273 54.9284 32.5872 55.0363 33.3451 54.9885C34.1029 54.9406 34.8385 54.7383 35.4956 54.3968L57 44L46.5706 34.5117Z" fill="#EA4335"/>
<path d="M65.4296 31.4908L55.9894 26.707L46.4858 34.9566L56.5583 44.268L65.4025 39.5355C66.186 39.1511 66.8423 38.573 67.3002 37.8639C67.7581 37.1549 68.0001 36.3419 68.0001 35.5131C68.0001 34.6843 67.7581 33.8713 67.3002 33.1622C66.8423 32.4532 66.186 31.8751 65.4025 31.4906L65.4296 31.4908Z" fill="#FBBC04"/>
<path d="M28.3648 17.9268C28.2526 18.2996 28.1968 18.6843 28.1988 19.0705V49.9536C28.1999 50.3397 28.2557 50.724 28.3648 51.0975L47.5616 34.0645L28.3648 17.9268Z" fill="#4285F4"/>
<path d="M46.6803 35.4878L56.1673 26.7165L35.5532 15.653C34.7776 15.2276 33.8955 15.0022 32.9967 15C30.7662 14.9959 28.8053 16.3826 28.1987 18.3934L46.6803 35.4878Z" fill="#34A853"/>
<path d="M86.5692 25.156C85.7162 25.156 84.9308 25.0208 84.213 24.7503C83.5057 24.4695 82.8867 24.0794 82.3562 23.58C81.8257 23.0703 81.4148 22.4722 81.1235 21.7856C80.8322 21.099 80.6866 20.35 80.6866 19.5386C80.6866 18.7272 80.8322 17.9783 81.1235 17.2917C81.4148 16.6051 81.8257 16.0122 82.3562 15.5128C82.8971 15.0031 83.5265 14.613 84.2443 14.3426C84.962 14.0617 85.7474 13.9213 86.6004 13.9213C87.5263 13.9213 88.3585 14.0721 89.0971 14.3738C89.846 14.6754 90.4754 15.1176 90.9851 15.7001L89.7056 16.9484C89.2791 16.5219 88.8162 16.2098 88.3169 16.0122C87.8279 15.8041 87.287 15.7001 86.6941 15.7001C86.1219 15.7001 85.5914 15.7937 85.1025 15.981C84.6135 16.1682 84.1922 16.4335 83.8386 16.7768C83.4849 17.12 83.2092 17.5257 83.0115 17.9939C82.8243 18.462 82.7307 18.9769 82.7307 19.5386C82.7307 20.09 82.8243 20.5997 83.0115 21.0678C83.2092 21.5359 83.4849 21.9468 83.8386 22.3005C84.1922 22.6438 84.6083 22.9091 85.0869 23.0963C85.5654 23.2836 86.0959 23.3772 86.6785 23.3772C87.2194 23.3772 87.7395 23.294 88.2388 23.1275C88.7486 22.9507 89.2323 22.6594 89.69 22.2537L90.8447 23.7673C90.2725 24.225 89.6068 24.5735 88.8474 24.8128C88.0984 25.0416 87.339 25.156 86.5692 25.156ZM88.9254 23.502V19.4138H90.8447V23.7673L88.9254 23.502ZM95.3926 18.618H100.823V20.2876H95.3926V18.618ZM95.5486 23.2992H101.712V25H93.5201V14.0773H101.494V15.7781H95.5486V23.2992ZM106.189 25V15.7937H102.569V14.0773H111.838V15.7937H108.218V25H106.189ZM117.673 25V14.0773H119.701V25H117.673ZM124.871 25V15.7937H121.251V14.0773H130.52V15.7937H126.9V25H124.871ZM141.473 25.156C140.62 25.156 139.834 25.0156 139.116 24.7347C138.399 24.4539 137.775 24.0638 137.244 23.5644C136.713 23.0547 136.303 22.4618 136.011 21.7856C135.72 21.099 135.574 20.35 135.574 19.5386C135.574 18.7272 135.72 17.9835 136.011 17.3073C136.303 16.6207 136.713 16.0278 137.244 15.5285C137.775 15.0187 138.399 14.6234 139.116 14.3426C139.834 14.0617 140.614 13.9213 141.457 13.9213C142.31 13.9213 143.09 14.0617 143.798 14.3426C144.515 14.6234 145.14 15.0187 145.67 15.5285C146.201 16.0278 146.612 16.6207 146.903 17.3073C147.194 17.9835 147.34 18.7272 147.34 19.5386C147.34 20.35 147.194 21.099 146.903 21.7856C146.612 22.4722 146.201 23.0651 145.67 23.5644C145.14 24.0638 144.515 24.4539 143.798 24.7347C143.09 25.0156 142.315 25.156 141.473 25.156ZM141.457 23.3772C142.008 23.3772 142.518 23.2836 142.986 23.0963C143.454 22.9091 143.86 22.6438 144.203 22.3005C144.547 21.9468 144.812 21.5411 144.999 21.0834C145.197 20.6153 145.296 20.1004 145.296 19.5386C145.296 18.9769 145.197 18.4672 144.999 18.0095C144.812 17.5414 144.547 17.1357 144.203 16.7924C143.86 16.4387 143.454 16.1682 142.986 15.981C142.518 15.7937 142.008 15.7001 141.457 15.7001C140.906 15.7001 140.396 15.7937 139.928 15.981C139.47 16.1682 139.064 16.4387 138.711 16.7924C138.367 17.1357 138.097 17.5414 137.899 18.0095C137.712 18.4672 137.618 18.9769 137.618 19.5386C137.618 20.09 137.712 20.5997 137.899 21.0678C138.097 21.5359 138.367 21.9468 138.711 22.3005C139.054 22.6438 139.46 22.9091 139.928 23.0963C140.396 23.2836 140.906 23.3772 141.457 23.3772ZM149.49 25V14.0773H151.159L158.01 22.4878H157.183V14.0773H159.195V25H157.526L150.676 16.5895H151.503V25H149.49Z" fill="white"/>
<path d="M92.1012 53.2874C90.5299 53.2874 89.0831 53.0383 87.7609 52.5401C86.4578 52.0227 85.3176 51.3041 84.3403 50.3843C83.363 49.4453 82.6061 48.3435 82.0696 47.0787C81.533 45.814 81.2647 44.4343 81.2647 42.9396C81.2647 41.4449 81.533 40.0652 82.0696 38.8005C82.6061 37.5357 83.363 36.4435 84.3403 35.5237C85.3368 34.5847 86.4961 33.8661 87.8184 33.3679C89.1406 32.8505 90.5874 32.5918 92.1587 32.5918C93.8642 32.5918 95.3972 32.8696 96.7577 33.4254C98.1374 33.9811 99.2968 34.7955 100.236 35.8686L97.8787 38.1681C97.0931 37.3824 96.2403 36.8076 95.3205 36.4435C94.4199 36.0602 93.4234 35.8686 92.3312 35.8686C91.2772 35.8686 90.2999 36.0411 89.3993 36.386C88.4986 36.7309 87.7225 37.2196 87.071 37.8519C86.4195 38.4843 85.9117 39.2316 85.5476 40.094C85.2027 40.9563 85.0302 41.9048 85.0302 42.9396C85.0302 43.9552 85.2027 44.8942 85.5476 45.7565C85.9117 46.6188 86.4195 47.3758 87.071 48.0273C87.7225 48.6597 88.489 49.1483 89.3705 49.4932C90.252 49.8382 91.2293 50.0106 92.3024 50.0106C93.2989 50.0106 94.257 49.8573 95.1768 49.5507C96.1158 49.225 97.0068 48.6884 97.85 47.9411L99.9771 50.7292C98.9231 51.5724 97.6967 52.2143 96.2978 52.6551C94.9181 53.0767 93.5192 53.2874 92.1012 53.2874ZM96.4415 50.2406V42.7097H99.9771V50.7292L96.4415 50.2406ZM109.735 53.2012C108.163 53.2012 106.764 52.8659 105.538 52.1952C104.311 51.5053 103.344 50.5663 102.635 49.3783C101.926 48.1902 101.571 46.8392 101.571 45.3254C101.571 43.7924 101.926 42.4414 102.635 41.2725C103.344 40.0844 104.311 39.155 105.538 38.4843C106.764 37.8136 108.163 37.4783 109.735 37.4783C111.325 37.4783 112.733 37.8136 113.96 38.4843C115.205 39.155 116.173 40.0748 116.863 41.2437C117.572 42.4126 117.927 43.7732 117.927 45.3254C117.927 46.8392 117.572 48.1902 116.863 49.3783C116.173 50.5663 115.205 51.5053 113.96 52.1952C112.733 52.8659 111.325 53.2012 109.735 53.2012ZM109.735 50.1256C110.616 50.1256 111.402 49.934 112.092 49.5507C112.781 49.1675 113.318 48.6118 113.701 47.8836C114.104 47.1554 114.305 46.3027 114.305 45.3254C114.305 44.3289 114.104 43.4762 113.701 42.7671C113.318 42.039 112.781 41.4833 112.092 41.1C111.402 40.7167 110.626 40.5251 109.763 40.5251C108.882 40.5251 108.096 40.7167 107.406 41.1C106.736 41.4833 106.199 42.039 105.797 42.7671C105.394 43.4762 105.193 44.3289 105.193 45.3254C105.193 46.3027 105.394 47.1554 105.797 47.8836C106.199 48.6118 106.736 49.1675 107.406 49.5507C108.096 49.934 108.872 50.1256 109.735 50.1256ZM126.536 53.2012C124.965 53.2012 123.566 52.8659 122.34 52.1952C121.113 51.5053 120.146 50.5663 119.436 49.3783C118.727 48.1902 118.373 46.8392 118.373 45.3254C118.373 43.7924 118.727 42.4414 119.436 41.2725C120.146 40.0844 121.113 39.155 122.34 38.4843C123.566 37.8136 124.965 37.4783 126.536 37.4783C128.127 37.4783 129.535 37.8136 130.762 38.4843C132.007 39.155 132.975 40.0748 133.665 41.2437C134.374 42.4126 134.728 43.7732 134.728 45.3254C134.728 46.8392 134.374 48.1902 133.665 49.3783C132.975 50.5663 132.007 51.5053 130.762 52.1952C129.535 52.8659 128.127 53.2012 126.536 53.2012ZM126.536 50.1256C127.418 50.1256 128.203 49.934 128.893 49.5507C129.583 49.1675 130.12 48.6118 130.503 47.8836C130.905 47.1554 131.107 46.3027 131.107 45.3254C131.107 44.3289 130.905 43.4762 130.503 42.7671C130.12 42.039 129.583 41.4833 128.893 41.1C128.203 40.7167 127.427 40.5251 126.565 40.5251C125.684 40.5251 124.898 40.7167 124.208 41.1C123.537 41.4833 123.001 42.039 122.598 42.7671C122.196 43.4762 121.995 44.3289 121.995 45.3254C121.995 46.3027 122.196 47.1554 122.598 47.8836C123.001 48.6118 123.537 49.1675 124.208 49.5507C124.898 49.934 125.674 50.1256 126.536 50.1256ZM143.395 58.7775C141.977 58.7775 140.588 58.5859 139.228 58.2027C137.886 57.8386 136.784 57.302 135.922 56.593L137.532 53.8911C138.202 54.4468 139.046 54.8875 140.061 55.2133C141.096 55.5582 142.14 55.7307 143.194 55.7307C144.881 55.7307 146.117 55.3378 146.902 54.5522C147.688 53.7857 148.081 52.6263 148.081 51.0742V48.3435L148.368 44.8655L148.253 41.3874V37.6507H151.674V50.6717C151.674 53.4503 150.965 55.4911 149.547 56.7942C148.129 58.1164 146.078 58.7775 143.395 58.7775ZM142.936 52.3101C141.479 52.3101 140.157 52.0035 138.969 51.3903C137.8 50.758 136.871 49.8861 136.181 48.7746C135.51 47.6632 135.175 46.3601 135.175 44.8655C135.175 43.3899 135.51 42.0965 136.181 40.985C136.871 39.8736 137.8 39.0113 138.969 38.3981C140.157 37.7849 141.479 37.4783 142.936 37.4783C144.239 37.4783 145.408 37.737 146.442 38.2543C147.477 38.7717 148.301 39.5766 148.914 40.6688C149.547 41.7611 149.863 43.16 149.863 44.8655C149.863 46.5709 149.547 47.9794 148.914 49.0908C148.301 50.1831 147.477 50.9975 146.442 51.5341C145.408 52.0514 144.239 52.3101 142.936 52.3101ZM143.482 49.2633C144.382 49.2633 145.187 49.0812 145.896 48.7171C146.605 48.3339 147.151 47.8165 147.535 47.165C147.937 46.4943 148.138 45.7278 148.138 44.8655C148.138 44.0031 147.937 43.2462 147.535 42.5947C147.151 41.924 146.605 41.4162 145.896 41.0713C145.187 40.7072 144.382 40.5251 143.482 40.5251C142.581 40.5251 141.767 40.7072 141.038 41.0713C140.329 41.4162 139.774 41.924 139.371 42.5947C138.988 43.2462 138.796 44.0031 138.796 44.8655C138.796 45.7278 138.988 46.4943 139.371 47.165C139.774 47.8165 140.329 48.3339 141.038 48.7171C141.767 49.0812 142.581 49.2633 143.482 49.2633ZM154.673 53V31.672H158.266V53H154.673ZM168.472 53.2012C166.766 53.2012 165.272 52.8659 163.988 52.1952C162.723 51.5053 161.736 50.5663 161.027 49.3783C160.337 48.1902 159.992 46.8392 159.992 45.3254C159.992 43.7924 160.328 42.4414 160.998 41.2725C161.688 40.0844 162.627 39.155 163.815 38.4843C165.022 37.8136 166.393 37.4783 167.926 37.4783C169.42 37.4783 170.752 37.804 171.921 38.4556C173.09 39.1071 174.01 40.0269 174.68 41.215C175.351 42.4031 175.686 43.8019 175.686 45.4116C175.686 45.5649 175.677 45.7374 175.658 45.929C175.658 46.1206 175.648 46.3027 175.629 46.4751H162.838V44.0894H173.732L172.323 44.8367C172.343 43.9552 172.16 43.1791 171.777 42.5085C171.394 41.8378 170.867 41.3108 170.196 40.9275C169.545 40.5443 168.788 40.3527 167.926 40.3527C167.044 40.3527 166.268 40.5443 165.597 40.9275C164.946 41.3108 164.428 41.8473 164.045 42.5372C163.681 43.2079 163.499 44.0031 163.499 44.9229V45.4978C163.499 46.4176 163.71 47.232 164.131 47.9411C164.553 48.6501 165.147 49.1962 165.913 49.5795C166.68 49.9627 167.561 50.1543 168.558 50.1543C169.42 50.1543 170.196 50.0202 170.886 49.7519C171.576 49.4837 172.189 49.0621 172.726 48.4872L174.652 50.7005C173.962 51.5053 173.09 52.1281 172.036 52.5688C171.001 52.9904 169.813 53.2012 168.472 53.2012ZM183.977 53V32.8792H192.256C194.038 32.8792 195.561 33.1667 196.826 33.7415C198.11 34.3164 199.097 35.1404 199.786 36.2135C200.476 37.2866 200.821 38.5609 200.821 40.0365C200.821 41.512 200.476 42.7863 199.786 43.8594C199.097 44.9325 198.11 45.7565 196.826 46.3314C195.561 46.9063 194.038 47.1937 192.256 47.1937H186.047L187.714 45.4403V53H183.977ZM187.714 45.8428L186.047 44.0319H192.083C193.731 44.0319 194.967 43.687 195.791 42.9971C196.634 42.2881 197.056 41.3012 197.056 40.0365C197.056 38.7526 196.634 37.7657 195.791 37.0758C194.967 36.386 193.731 36.0411 192.083 36.0411H186.047L187.714 34.2014V45.8428ZM202.764 53V31.672H206.357V53H202.764ZM218.805 53V49.8957L218.604 49.2345V43.8019C218.604 42.748 218.287 41.9336 217.655 41.3587C217.023 40.7647 216.065 40.4676 214.781 40.4676C213.918 40.4676 213.066 40.6018 212.222 40.87C211.398 41.1383 210.699 41.512 210.124 41.9911L208.716 39.3754C209.54 38.743 210.517 38.2735 211.648 37.9669C212.797 37.6411 213.985 37.4783 215.212 37.4783C217.435 37.4783 219.15 38.0148 220.357 39.0879C221.583 40.1419 222.197 41.7803 222.197 44.0031V53H218.805ZM213.976 53.2012C212.826 53.2012 211.82 53.0096 210.958 52.6263C210.095 52.2239 209.425 51.6778 208.946 50.9879C208.486 50.2789 208.256 49.4837 208.256 48.6022C208.256 47.7399 208.457 46.9638 208.859 46.2739C209.281 45.5841 209.961 45.0379 210.9 44.6355C211.839 44.2331 213.085 44.0319 214.637 44.0319H219.092V46.4176H214.896C213.669 46.4176 212.845 46.6188 212.424 47.0213C212.002 47.4045 211.791 47.8836 211.791 48.4585C211.791 49.11 212.05 49.6274 212.567 50.0106C213.085 50.3939 213.803 50.5855 214.723 50.5855C215.605 50.5855 216.39 50.3843 217.08 49.9819C217.789 49.5795 218.297 48.9854 218.604 48.1998L219.207 50.3556C218.862 51.2562 218.24 51.9556 217.339 52.4539C216.457 52.9521 215.336 53.2012 213.976 53.2012ZM226.067 58.7775C225.32 58.7775 224.572 58.653 223.825 58.4039C223.078 58.1548 222.455 57.8098 221.957 57.3691L223.394 54.7246C223.758 55.0504 224.17 55.3091 224.63 55.5007C225.09 55.6924 225.559 55.7882 226.038 55.7882C226.69 55.7882 227.217 55.6253 227.619 55.2995C228.022 54.9738 228.395 54.4276 228.74 53.6611L229.631 51.649L229.919 51.2179L235.725 37.6507H239.174L231.988 54.236C231.509 55.3857 230.973 56.296 230.379 56.9667C229.804 57.6374 229.152 58.1068 228.424 58.3751C227.715 58.6434 226.929 58.7775 226.067 58.7775ZM229.229 53.5461L222.302 37.6507H226.038L231.672 50.9017L229.229 53.5461Z" fill="white"/>
</svg>
