<svg width="64" height="64" viewBox="0 0 64 64" fill="none" xmlns="http://www.w3.org/2000/svg">
<g id="Icon Sele" clip-path="url(#clip0_295_6409)">
<rect id="Rectangle 107" width="4" height="32.22" rx="2" transform="matrix(-0.707107 -0.707107 -0.707107 0.707107 45.291 22.5078)" fill="#232323"/>
<circle id="Ellipse 23" cx="25" cy="25" r="5" fill="#232323"/>
<circle id="Ellipse 24" cx="40" cy="40" r="5" fill="#232323"/>
<path id="Star 6" d="M48.6777 50.646L49.0162 52.6171L48.6777 50.646L48.2118 50.726C45.8073 51.1389 43.6735 52.5102 42.2991 54.5258L42.0328 54.9164L43.6852 56.0431L42.0328 54.9164C40.69 56.8857 38.1438 57.6333 35.9494 56.7026L35.5142 56.518C33.2682 55.5654 30.7318 55.5654 28.4858 56.518L28.0506 56.7026C25.8562 57.6333 23.31 56.8857 21.9672 54.9164L21.7009 54.5258L20.0485 55.6525L21.7009 54.5258C20.3265 52.5102 18.1926 51.1389 15.7882 50.726L15.3223 50.646C12.9731 50.2426 11.2353 48.237 11.1703 45.8544L11.1575 45.3818C11.091 42.9431 10.0373 40.6358 8.23775 38.9885L7.88903 38.6693C6.13089 37.0599 5.75323 34.4332 6.98674 32.3937L7.23139 31.9892C8.49393 29.9016 8.8549 27.391 8.23164 25.0323L8.11086 24.5752C7.50192 22.2708 8.60431 19.8569 10.7447 18.808L11.1692 18.6C13.3599 17.5264 15.0209 15.6094 15.7718 13.2882L15.9173 12.8384C16.6509 10.5706 18.8834 9.13589 21.251 9.41067L21.7206 9.46517C24.144 9.74642 26.5777 9.03182 28.4643 7.48504L28.8299 7.18531C30.6731 5.6741 33.3269 5.6741 35.1701 7.18531L35.5357 7.48504L36.8037 5.93841L35.5357 7.48504C37.4223 9.03182 39.856 9.74642 42.2794 9.46517L42.749 9.41067C45.1166 9.13589 47.3491 10.5706 48.0827 12.8384L48.2282 13.2882L50.1311 12.6727L48.2282 13.2882C48.9791 15.6094 50.6401 17.5264 52.8308 18.6L53.2553 18.808C55.3957 19.8569 56.4981 22.2708 55.8891 24.5752L55.7684 25.0323L57.702 25.5432L55.7684 25.0323C55.1451 27.391 55.5061 29.9016 56.7686 31.9892L57.0133 32.3937C58.2468 34.4332 57.8691 37.0599 56.111 38.6693L55.7622 38.9885L57.1127 40.4638L55.7622 38.9885C53.9627 40.6358 52.909 42.9431 52.8425 45.3818L52.8297 45.8544C52.7647 48.237 51.0269 50.2426 48.6777 50.646Z" stroke="#232323" stroke-width="4"/>
</g>
<defs>
<clipPath id="clip0_295_6409">
<rect width="64" height="64" fill="white"/>
</clipPath>
</defs>
</svg>
