<svg width="48" height="48" viewBox="0 0 48 48" fill="none" xmlns="http://www.w3.org/2000/svg">
<circle cx="24" cy="24" r="24" fill="white"/>
<path d="M34.8132 13.6728C34.8132 13.6728 37.4032 12.6628 37.1866 15.1155C37.1152 16.1255 36.4679 19.6608 35.9639 23.4841L34.2372 34.8108C34.2372 34.8108 34.0932 36.4701 32.7979 36.7588C31.5032 37.0468 29.5606 35.7488 29.2006 35.4601C28.9126 35.2435 23.8046 31.9968 22.0059 30.4101C21.5019 29.9768 20.9259 29.1115 22.0779 28.1015L29.6326 20.8868C30.4959 20.0201 31.3592 18.0001 27.7619 20.4535L17.6886 27.3068C17.6886 27.3068 16.5372 28.0288 14.3792 27.3795L9.7019 25.9361C9.7019 25.9361 7.97524 24.8541 10.9252 23.7721C18.1206 20.3815 26.9706 16.9188 34.8126 13.6721L34.8132 13.6728Z" fill="#232323"/>
</svg>
