<svg width="48" height="56" viewBox="0 0 48 56" fill="none" xmlns="http://www.w3.org/2000/svg">
<circle cx="24" cy="24" r="24" fill="white"/>
<path d="M33.4001 14.5471C32.1777 13.3123 30.7216 12.3333 29.1169 11.6671C27.5122 11.001 25.7909 10.661 24.0534 10.6671C16.7734 10.6671 10.8401 16.6004 10.8401 23.8804C10.8401 26.2137 11.4534 28.4804 12.6001 30.4804L10.7334 37.3337L17.7334 35.4937C19.6667 36.5471 21.8401 37.1071 24.0534 37.1071C31.3334 37.1071 37.2667 31.1737 37.2667 23.8937C37.2667 20.3604 35.8934 17.0404 33.4001 14.5471ZM24.0534 34.8671C22.0801 34.8671 20.1467 34.3337 18.4534 33.3337L18.0534 33.0937L13.8934 34.1871L15.0001 30.1337L14.7334 29.7204C13.6371 27.9697 13.0549 25.9461 13.0534 23.8804C13.0534 17.8271 17.9867 12.8937 24.0401 12.8937C26.9734 12.8937 29.7334 14.0404 31.8001 16.1204C32.8234 17.139 33.6343 18.3506 34.1859 19.685C34.7375 21.0193 35.0188 22.4499 35.0134 23.8937C35.0401 29.9471 30.1067 34.8671 24.0534 34.8671ZM30.0801 26.6537C29.7467 26.4937 28.1201 25.6937 27.8267 25.5737C27.5201 25.4671 27.3067 25.4137 27.0801 25.7337C26.8534 26.0671 26.2267 26.8137 26.0401 27.0271C25.8534 27.2537 25.6534 27.2804 25.3201 27.1071C24.9867 26.9471 23.9201 26.5871 22.6667 25.4671C21.6801 24.5871 21.0267 23.5071 20.8267 23.1737C20.6401 22.8404 20.8001 22.6671 20.9734 22.4937C21.1201 22.3471 21.3067 22.1071 21.4667 21.9204C21.6267 21.7337 21.6934 21.5871 21.8001 21.3737C21.9067 21.1471 21.8534 20.9604 21.7734 20.8004C21.6934 20.6404 21.0267 19.0137 20.7601 18.3471C20.4934 17.7071 20.2134 17.7871 20.0134 17.7737H19.3734C19.1467 17.7737 18.8001 17.8537 18.4934 18.1871C18.2001 18.5204 17.3467 19.3204 17.3467 20.9471C17.3467 22.5737 18.5334 24.1471 18.6934 24.3604C18.8534 24.5871 21.0267 27.9204 24.3334 29.3471C25.1201 29.6937 25.7334 29.8937 26.2134 30.0404C27.0001 30.2937 27.7201 30.2537 28.2934 30.1737C28.9334 30.0804 30.2534 29.3737 30.5201 28.6004C30.8001 27.8271 30.8001 27.1737 30.7067 27.0271C30.6134 26.8804 30.4134 26.8137 30.0801 26.6537Z" fill="#232323"/>
</svg>
